<svg width="336" height="341" viewBox="0 0 336 341" fill="none" xmlns="http://www.w3.org/2000/svg">
<path fill-rule="evenodd" clip-rule="evenodd" d="M168.686 0.200598C204.108 0.665934 238.272 12.2748 267.092 32.9475C296.082 53.7427 320.141 81.8947 330.345 116.159C340.403 149.935 334.649 185.948 322.505 219.026C310.737 251.083 289.891 278.204 263.112 299.297C235.469 321.069 203.826 340.171 168.686 340.183C133.54 340.196 102.655 320.083 74.2112 299.364C45.7551 278.637 17.4982 255.268 6.22363 221.845C-5.12443 188.204 2.1138 151.9 13.0761 118.131C24.0309 84.3843 40.1675 51.7264 68.3906 30.3372C96.9384 8.70207 132.915 -0.269316 168.686 0.200598Z" fill="#FFF8E8"/>
<path d="M71.202 47.5838C76.4101 47.5838 80.6322 43.3368 80.6322 38.0978C80.6322 32.8588 76.4101 28.6118 71.202 28.6118C65.9938 28.6118 61.7717 32.8588 61.7717 38.0978C61.7717 43.3368 65.9938 47.5838 71.202 47.5838Z" fill="#359D9E"/>
<g opacity="0.1">
<path opacity="0.1" d="M248.816 152.172C247.169 153.178 245.208 153.546 243.298 153.896C241.336 154.255 239.254 154.583 237.31 154.328C239.751 155.321 242.609 154.886 245.249 154.403C247.159 154.053 249.12 153.684 250.768 152.679C253.457 151.038 254.854 148.002 255.913 145.085C258.408 138.211 259.871 131.021 260.257 123.738C260.64 116.473 260.165 108.488 264.755 102.752C265.286 102.088 265.921 101.454 266.849 101.36C266.657 101.242 266.455 101.141 266.245 101.057C264.512 100.393 263.56 101.3 262.803 102.246C258.214 107.981 258.689 115.966 258.306 123.232C257.92 130.514 256.457 137.704 253.962 144.579C252.903 147.495 251.506 150.531 248.816 152.172Z" fill="black"/>
<path opacity="0.1" d="M220.914 153.605C222.149 151.223 225.732 148.436 228.632 148.488C228.237 148.285 227.816 148.137 227.379 148.047C224.385 147.463 220.299 150.521 218.962 153.098C215.586 159.608 223.667 164.879 229.589 166.031C224.025 164.246 217.897 159.421 220.914 153.605Z" fill="black"/>
</g>
<path opacity="0.5" d="M172.875 150.182L170.772 154.298L170.998 154.408L173.1 150.292L172.875 150.182Z" fill="#58555D"/>
<path opacity="0.5" d="M176.489 151.938L174.387 156.054L174.613 156.164L176.715 152.047L176.489 151.938Z" fill="#58555D"/>
<path opacity="0.5" d="M175.198 149.672L172.255 155.433L172.481 155.543L175.424 149.781L175.198 149.672Z" fill="#58555D"/>
<path opacity="0.5" d="M196.821 160.713L194.719 164.829L194.944 164.939L197.047 160.823L196.821 160.713Z" fill="#58555D"/>
<path opacity="0.5" d="M200.436 162.469L198.333 166.585L198.559 166.695L200.662 162.579L200.436 162.469Z" fill="#58555D"/>
<path opacity="0.5" d="M199.145 160.203L196.202 165.964L196.428 166.074L199.371 160.313L199.145 160.203Z" fill="#58555D"/>
<path d="M204.862 115.512L204.813 115.369C205.067 115.323 205.306 115.22 205.512 115.068C205.718 114.917 205.886 114.721 206.001 114.496C206.117 114.27 206.178 114.022 206.179 113.771C206.18 113.519 206.121 113.27 206.007 113.044L206.147 112.981C206.27 113.226 206.334 113.496 206.333 113.768C206.333 114.041 206.268 114.31 206.144 114.555C206.019 114.8 205.839 115.013 205.617 115.179C205.395 115.345 205.136 115.459 204.862 115.512Z" fill="#4D8AF0"/>
<path opacity="0.1" d="M204.862 115.512L204.813 115.369C205.067 115.323 205.306 115.22 205.512 115.068C205.718 114.917 205.886 114.721 206.001 114.496C206.117 114.27 206.178 114.022 206.179 113.771C206.18 113.519 206.121 113.27 206.007 113.044L206.147 112.981C206.27 113.226 206.334 113.496 206.333 113.768C206.333 114.041 206.268 114.31 206.144 114.555C206.019 114.8 205.839 115.013 205.617 115.179C205.395 115.345 205.136 115.459 204.862 115.512Z" fill="black"/>
<path opacity="0.1" d="M105.371 235.052C135.572 235.052 160.054 231.419 160.054 226.938C160.054 222.456 135.572 218.823 105.371 218.823C75.17 218.823 50.6875 222.456 50.6875 226.938C50.6875 231.419 75.17 235.052 105.371 235.052Z" fill="black"/>
<path d="M148.831 100.112C155.958 100.112 161.735 94.4786 161.735 87.529C161.735 80.5793 155.958 74.9455 148.831 74.9455C141.704 74.9455 135.926 80.5793 135.926 87.529C135.926 94.4786 141.704 100.112 148.831 100.112Z" fill="#55C595"/>
<path opacity="0.5" d="M149.68 278.974C145.541 279.245 140.99 277.724 140.096 274.689C139.58 272.936 140.397 271.222 141.187 269.565C142.052 267.749 142.8 266.18 141.719 264.888C141.227 264.3 140.367 263.854 139.512 263.46C138.397 262.946 137.2 262.472 136.043 262.014C134.043 261.222 131.975 260.402 130.137 259.316C126.524 257.18 124.697 254.332 125.249 251.696C125.727 249.418 127.808 247.674 129.821 245.986C131.886 244.256 133.836 242.621 133.79 240.621C133.729 237.899 129.969 235.946 126.652 234.222L126.134 233.952C122.087 231.84 118.199 228.175 120.562 224.796C121.388 223.616 122.765 222.859 124.096 222.127C124.994 221.678 125.812 221.149 126.533 220.551C128.967 218.321 127.725 215.018 127.078 213.701C126.586 212.701 125.943 211.702 125.321 210.736C124.403 209.31 123.453 207.835 122.901 206.244L122.811 205.983C121.481 202.153 121.483 202.01 122.888 198.335L123.063 197.876L125.161 198.314L124.986 198.774C123.714 202.1 123.714 202.1 124.923 205.582L125.013 205.843C125.512 207.283 126.376 208.623 127.29 210.043C127.933 211.043 128.599 212.077 129.127 213.15C130.762 216.477 130.435 219.544 128.23 221.564C127.396 222.27 126.444 222.894 125.397 223.421C124.212 224.073 123.093 224.688 122.499 225.537C120.661 228.165 124.709 231.235 127.391 232.634L127.905 232.902C131.463 234.751 135.89 237.052 135.97 240.593C136.03 243.22 133.705 245.169 131.456 247.053C129.567 248.637 127.784 250.132 127.404 251.943C126.896 254.366 129.186 256.689 131.498 258.056C133.18 259.05 135.07 259.799 137.072 260.592C138.26 261.063 139.489 261.549 140.664 262.09C141.745 262.588 142.845 263.169 143.574 264.039C145.203 265.988 144.207 268.079 143.243 270.101C142.523 271.613 141.842 273.04 142.227 274.345C142.921 276.704 147.103 277.777 150.422 277.266C153.137 276.847 155.527 275.744 158.057 274.576C158.875 274.198 159.722 273.807 160.574 273.445C165.225 271.469 169.44 270.986 172.763 272.048C173.809 272.413 174.799 272.86 175.716 273.381C176.43 273.783 177.188 274.14 177.982 274.45C179.788 275.033 181.825 275.091 183.687 274.613C185.548 274.134 187.098 273.155 188.027 271.869C188.187 271.623 188.331 271.358 188.483 271.078C188.967 270.189 189.516 269.182 190.768 268.55C192.08 267.888 193.696 267.898 194.876 267.906L207.066 267.982L207.047 269.595L194.858 269.518C193.701 269.511 192.688 269.534 191.997 269.883C191.291 270.239 190.909 270.939 190.506 271.681C190.347 271.972 190.183 272.274 189.992 272.567C188.812 274.241 186.812 275.517 184.402 276.137C181.992 276.756 179.353 276.671 177.025 275.899C176.122 275.551 175.26 275.148 174.448 274.693C173.655 274.24 172.8 273.849 171.897 273.529C168.529 272.451 164.471 273.649 161.66 274.844C160.842 275.191 160.013 275.574 159.212 275.944C156.631 277.136 153.962 278.368 150.866 278.845C150.475 278.905 150.078 278.948 149.68 278.974Z" fill="url(#paint0_linear)"/>
<path opacity="0.2" d="M251.019 275.776C251.019 275.776 247.714 266.683 254.947 260.917" stroke="black" stroke-miterlimit="10"/>
<path opacity="0.2" d="M250.075 251.656C250.075 251.656 242.253 257.775 242.363 269.261" stroke="black" stroke-miterlimit="10"/>
<path opacity="0.2" d="M249.218 279.864C249.218 279.864 247.697 283.625 251.691 286.609" stroke="black" stroke-miterlimit="10"/>
<path opacity="0.2" d="M257.537 265.534C257.537 265.534 255.202 270.576 257.094 274.345" stroke="black" stroke-miterlimit="10"/>
<path opacity="0.2" d="M260.923 265.242C260.923 265.242 263.595 270.76 261.712 273.947" stroke="black" stroke-miterlimit="10"/>
<path d="M37.0799 207.86C41.6652 207.86 45.3823 204.235 45.3823 199.764C45.3823 195.293 41.6652 191.668 37.0799 191.668C32.4947 191.668 28.7776 195.293 28.7776 199.764C28.7776 204.235 32.4947 207.86 37.0799 207.86Z" fill="#AEE8BC"/>
<path d="M94.933 277.109C99.5182 277.109 103.235 273.484 103.235 269.013C103.235 264.542 99.5182 260.917 94.933 260.917C90.3477 260.917 86.6306 264.542 86.6306 269.013C86.6306 273.484 90.3477 277.109 94.933 277.109Z" fill="#AEE8BC"/>
<path d="M291.718 205.972C296.304 205.972 300.021 202.347 300.021 197.876C300.021 193.405 296.304 189.78 291.718 189.78C287.133 189.78 283.416 193.405 283.416 197.876C283.416 202.347 287.133 205.972 291.718 205.972Z" fill="#215273"/>
<path d="M200.813 113.545L194.963 165.661L172.398 166.475L159.027 186.833L151.505 190.905V194.977V199.863L138.969 206.377C139.805 203.12 139.805 199.863 139.805 195.791L144.82 193.348V183.576L153.177 177.062L154.012 138.789L200.813 113.545Z" fill="#FFCE54"/>
<path d="M138.134 208.005C138.134 208.005 137.298 208.005 138.134 208.005C137.298 207.191 136.462 207.191 137.298 206.377C138.134 203.119 138.134 199.862 138.134 195.79C138.134 194.976 138.134 194.976 138.97 194.976L143.148 192.533V183.576C143.148 183.576 143.148 182.761 143.984 182.761L152.341 176.247L153.177 138.788C153.177 137.974 153.177 137.974 154.012 137.974L199.977 112.73C199.977 112.73 200.813 112.73 201.648 112.73L202.484 113.544L196.634 165.661C196.634 166.475 195.798 166.475 195.798 166.475L174.07 167.289L160.698 186.833C160.698 186.833 160.698 186.833 159.863 186.833L153.177 190.904L152.341 199.048C152.341 199.048 152.341 199.862 151.505 199.862L138.134 208.005ZM139.805 196.605C139.805 199.862 139.805 202.305 138.97 204.748L148.998 199.048L149.834 190.904C149.834 190.904 149.834 190.09 150.67 190.09L158.191 186.019L171.563 165.661L172.398 164.846L194.127 164.032L199.977 115.173L154.848 139.602L154.012 177.061C154.012 177.061 154.012 177.875 153.177 177.875L144.82 184.39V193.347C144.82 194.162 144.82 194.162 143.984 194.162L139.805 196.605Z" fill="#3B2314"/>
<path d="M151.505 195.79V200.676L138.969 207.191C139.805 203.934 139.805 200.676 139.805 196.605L144.82 194.162V189.276L151.505 195.79Z" fill="#3B2314"/>
<path d="M138.134 208.005C138.134 208.005 137.298 208.005 138.134 208.005C137.298 207.191 136.462 207.191 137.298 206.376C138.134 203.119 138.134 199.862 138.134 195.79C138.134 194.976 138.134 194.976 138.97 194.976L143.148 192.533V188.461C143.148 187.647 143.148 187.647 143.984 187.647C144.82 187.647 144.82 187.647 145.655 187.647L153.177 194.976V195.79V200.676C153.177 200.676 153.177 201.49 152.341 201.49L138.134 208.005ZM139.805 196.604C139.805 199.862 139.805 202.305 138.97 204.748L148.998 199.047V195.79L143.984 190.904V193.347C143.984 194.162 143.984 194.162 143.148 194.162L139.805 196.604Z" fill="#3B2314"/>
<path d="M155.683 134.716C155.683 134.716 168.218 85.0427 104.704 84.2283C41.189 85.0427 53.7248 134.716 53.7248 134.716C40.3533 166.475 75.4535 169.732 75.4535 169.732C60.4105 207.191 75.4535 217.777 75.4535 217.777C81.3035 221.849 87.1536 221.848 90.4964 221.034C92.1679 221.034 93.0036 220.22 94.675 219.406C98.0179 217.777 103.868 217.777 103.868 217.777C103.868 217.777 109.718 217.777 113.061 219.406C114.732 220.22 115.568 220.22 117.239 221.034C120.582 221.848 126.432 221.849 132.282 217.777C132.282 217.777 147.325 208.005 132.282 169.732C132.282 169.732 167.383 166.475 155.683 134.716Z" fill="#FFCE54"/>
<path d="M121.42 221.849C119.748 221.849 118.077 221.849 117.241 221.034C115.57 221.034 113.898 220.22 113.063 219.406C110.556 217.777 104.706 217.777 104.706 217.777C104.706 217.777 98.8555 217.777 96.3483 219.406C95.5126 220.22 93.8412 221.034 92.1697 221.034C88.8269 221.849 82.1411 221.849 76.2911 217.777C75.4553 217.777 61.2481 207.191 75.4553 169.732C71.2767 168.918 59.5767 166.475 53.7266 157.517C49.548 151.003 49.548 142.86 52.8909 133.902C51.2195 131.459 47.8766 114.358 58.7409 99.7005C67.0981 88.3 82.9768 82.5998 103.87 82.5998C125.599 82.5998 140.641 89.1144 148.999 99.7005C159.863 113.544 156.52 131.459 156.52 134.716C159.863 144.488 159.863 152.631 155.684 158.332C149.834 167.289 138.134 169.732 133.956 170.546C148.163 208.005 133.956 217.777 133.12 218.591C128.941 221.034 124.763 221.849 121.42 221.849ZM103.87 216.148C103.87 216.148 110.556 216.148 113.898 217.777C114.734 218.591 116.406 218.591 117.241 219.406C120.584 220.22 126.434 220.22 131.449 216.148C131.449 216.148 145.656 206.376 131.449 169.732V168.918L132.284 168.103C132.284 168.103 147.327 166.475 154.013 157.517C157.356 151.817 158.192 144.488 154.013 135.531V134.716C154.013 134.716 158.192 115.987 147.327 101.329C138.97 90.743 124.763 85.0428 103.87 85.0428C83.8125 85.0428 68.7696 90.743 60.4124 101.329C49.548 115.173 53.7266 133.902 53.7266 133.902V134.716C50.3838 143.674 50.3838 151.003 54.5623 156.703C61.2481 166.475 76.2911 167.289 76.2911 167.289C76.2911 167.289 77.1268 167.289 77.1268 168.103V168.918C62.9195 205.562 76.2911 215.334 76.2911 215.334C81.3054 219.406 87.1554 219.406 90.4983 218.591C92.1697 218.591 93.0055 218.591 94.6769 217.777C97.1841 216.148 103.87 216.148 103.87 216.148Z" fill="#3B2314"/>
<path d="M74.6193 216.149L66.2621 222.663C66.2621 222.663 61.2478 227.549 79.6336 219.406C79.6336 219.406 76.2907 217.778 74.6193 216.149Z" fill="#FDF063"/>
<path d="M66.2617 225.106C65.426 225.106 64.5903 225.106 64.5903 224.291C63.7546 223.477 64.5903 221.848 65.426 221.848L73.7832 215.334H74.6189C74.6189 215.334 75.4547 215.334 75.4547 216.148C76.2904 217.777 79.6333 219.405 80.469 219.405C81.3047 219.405 81.3047 220.22 81.3047 220.22C81.3047 221.034 81.3047 221.034 80.469 221.034C72.1118 224.291 68.7689 225.106 66.2617 225.106ZM74.6189 217.777L67.9332 222.663C69.6046 222.663 72.1118 221.848 77.1261 219.405C76.2904 218.591 75.4547 218.591 74.6189 217.777Z" fill="#3B2314"/>
<path d="M81.3051 87.4864C81.3051 87.4864 68.7693 90.7437 61.2478 98.8869C61.2478 98.8869 50.3835 93.1866 45.3691 76.9002C42.862 69.5713 42.0263 60.6138 43.6977 48.399C43.6977 48.399 52.0549 50.0276 61.2478 57.3565C68.7693 63.8711 76.2908 72.8286 81.3051 87.4864Z" fill="#FFCE54"/>
<path d="M61.2481 99.7003C60.4124 99.7003 49.548 93.1857 44.5337 76.8993C42.0265 68.7561 41.1908 58.9843 42.8623 48.3981C42.8623 48.3981 42.8623 47.5838 43.698 47.5838H44.5337C44.5337 47.5838 53.7266 49.2124 62.9195 57.3556C72.1124 64.6845 78.7982 74.4564 82.9768 87.4855V88.2998C82.1411 88.2998 82.1411 88.2998 81.3054 88.2998C81.3054 88.2998 69.6053 91.5571 62.0838 99.7003C62.0838 99.7003 62.0838 99.7003 61.2481 99.7003ZM44.5337 50.0268C43.698 59.7986 44.5337 68.7561 46.2051 76.085C51.2195 89.9285 58.7409 95.6287 61.2481 97.2573C67.9338 90.7428 76.291 87.4855 79.6339 86.6712C75.4553 75.2707 69.6053 65.4988 60.4124 58.9843C53.7266 53.284 47.8766 50.8411 44.5337 50.0268Z" fill="#3B2314"/>
<path d="M98.02 140.417C97.1843 140.417 96.3486 140.417 96.3486 140.417C94.6771 139.602 93.8414 138.788 93.0057 137.974C92.17 135.531 93.0057 133.088 93.0057 133.088C93.0057 133.088 93.8414 132.273 93.8414 133.088C93.8414 133.088 94.6771 133.902 93.8414 133.902C93.8414 133.902 93.0057 135.531 93.8414 137.159C93.8414 137.974 94.6771 138.788 96.3486 138.788C96.3486 138.788 100.527 139.602 103.034 135.531C103.034 135.531 103.87 134.716 103.87 135.531C103.87 135.531 104.706 136.345 103.87 136.345C103.034 139.602 99.6915 140.417 98.02 140.417Z" fill="#3B2314"/>
<path d="M79.6332 137.159C82.4025 137.159 84.6475 134.972 84.6475 132.273C84.6475 129.575 82.4025 127.387 79.6332 127.387C76.8639 127.387 74.6189 129.575 74.6189 132.273C74.6189 134.972 76.8639 137.159 79.6332 137.159Z" fill="#3B2314"/>
<path d="M67.0979 152.631C71.2519 152.631 74.6194 149.35 74.6194 145.302C74.6194 141.255 71.2519 137.973 67.0979 137.973C62.9439 137.973 59.5764 141.255 59.5764 145.302C59.5764 149.35 62.9439 152.631 67.0979 152.631Z" fill="#EE4036"/>
<path d="M64.5906 143.674C65.5137 143.674 66.2621 142.944 66.2621 142.045C66.2621 141.145 65.5137 140.416 64.5906 140.416C63.6675 140.416 62.9192 141.145 62.9192 142.045C62.9192 142.944 63.6675 143.674 64.5906 143.674Z" fill="white"/>
<path d="M84.6477 199.047H83.812C80.4691 198.233 77.1262 192.533 77.1262 192.533V191.718H77.9619C78.7977 193.347 81.3048 196.604 83.812 197.419C84.6477 197.419 85.4834 197.419 85.4834 197.419C85.4834 197.419 87.9906 194.976 82.1405 181.132C82.1405 181.132 82.1405 180.318 82.9763 180.318C82.9763 180.318 83.812 180.318 83.812 181.132C90.4977 196.604 87.1549 199.047 86.3191 199.862C85.4834 199.047 85.4834 199.047 84.6477 199.047Z" fill="#3B2314"/>
<path d="M61.2473 58.1708C52.8901 63.871 48.7115 71.1999 46.2044 76.9001C43.6972 69.5713 42.8615 60.6137 44.5329 48.3989C43.6972 48.3989 52.0544 50.8419 61.2473 58.1708Z" fill="#3B2314"/>
<path d="M46.2047 78.5279C46.2047 78.5279 45.369 78.5279 46.2047 78.5279C45.369 78.5279 45.369 78.5279 45.369 77.7136C42.0261 68.7561 41.1904 58.9842 42.8618 48.3981C42.8618 48.3981 42.8618 47.5837 43.6976 47.5837H44.5333C44.5333 47.5837 53.7262 49.2124 62.9191 57.3556L63.7548 58.1699C63.7548 58.1699 63.7548 58.9842 62.9191 58.9842C53.7262 64.6845 49.5476 72.0134 47.0404 77.7136L46.2047 78.5279ZM44.5333 50.0267C43.6976 58.1699 43.6976 66.3131 45.369 73.642C47.8762 68.7561 52.0548 63.0558 58.7405 58.1699C52.8905 53.284 47.0404 50.841 44.5333 50.0267Z" fill="#3B2314"/>
<path d="M133.956 216.148L142.313 222.663C142.313 222.663 147.327 227.549 128.941 219.406C128.106 219.406 132.284 217.777 133.956 216.148Z" fill="#FDF063"/>
<path d="M141.477 225.106C139.806 225.106 135.627 224.292 127.27 220.22C126.434 220.22 126.434 219.406 126.434 219.406C126.434 218.591 126.434 218.591 127.27 218.591C127.27 218.591 130.613 216.963 132.284 215.334L133.12 214.52H133.956L142.313 221.034C143.148 221.849 143.148 222.663 143.148 223.477C143.148 225.106 142.313 225.106 141.477 225.106ZM131.448 219.406C136.463 221.849 138.97 222.663 140.641 222.663L133.956 217.777C133.12 218.591 132.284 218.591 131.448 219.406Z" fill="#3B2314"/>
<path d="M127.27 87.4864C127.27 87.4864 139.805 90.7436 147.327 98.8868C147.327 98.8868 158.191 93.1866 163.205 76.9002C165.713 69.5713 166.548 60.6138 164.877 48.399C164.877 48.399 156.52 50.0276 147.327 57.3565C138.97 63.8711 131.448 72.8286 127.27 87.4864Z" fill="#FFCE54"/>
<path d="M146.491 99.7005H145.655C138.134 91.5573 126.434 88.3001 126.434 88.3001C126.434 88.3001 125.598 88.3001 125.598 87.4857V86.6714C129.777 74.4566 136.462 64.6848 145.655 56.5416C154.848 49.2127 163.206 47.584 164.041 47.584H164.877L165.713 48.3984C167.384 58.9845 166.548 68.7564 164.041 76.8996C158.191 94.0003 147.327 99.7005 146.491 99.7005C147.327 99.7005 146.491 99.7005 146.491 99.7005ZM128.105 86.6714C131.448 87.4857 140.641 90.743 146.491 97.2576C148.998 95.6289 156.52 89.1144 160.698 76.8996C163.206 69.5707 164.041 60.6132 162.37 50.8413C159.863 51.6556 153.177 54.0986 146.491 59.7988C138.97 65.4991 132.284 75.2709 128.105 86.6714Z" fill="#3B2314"/>
<path d="M110.555 140.417C108.884 140.417 105.541 139.602 103.869 136.345V135.531H104.705C107.212 139.602 111.391 138.788 111.391 138.788C112.227 138.788 113.062 137.974 113.898 137.159C114.734 135.531 113.898 133.902 113.898 133.902V133.088H114.734C114.734 133.088 115.569 135.531 114.734 137.974C113.898 138.788 113.062 139.602 111.391 140.417C111.391 140.417 111.391 140.417 110.555 140.417Z" fill="#3B2314"/>
<path d="M128.105 137.159C130.874 137.159 133.119 134.972 133.119 132.273C133.119 129.575 130.874 127.387 128.105 127.387C125.336 127.387 123.091 129.575 123.091 132.273C123.091 134.972 125.336 137.159 128.105 137.159Z" fill="#3B2314"/>
<path d="M140.641 152.631C144.795 152.631 148.162 149.35 148.162 145.302C148.162 141.255 144.795 137.973 140.641 137.973C136.487 137.973 133.119 141.255 133.119 145.302C133.119 149.35 136.487 152.631 140.641 152.631Z" fill="#EE4036"/>
<path d="M143.984 143.674C144.907 143.674 145.655 142.944 145.655 142.045C145.655 141.145 144.907 140.416 143.984 140.416C143.061 140.416 142.312 141.145 142.312 142.045C142.312 142.944 143.061 143.674 143.984 143.674Z" fill="white"/>
<path d="M123.927 199.047C123.091 199.047 122.255 199.047 121.419 198.233C120.584 198.233 117.241 194.976 123.927 179.504L124.762 178.689L125.598 179.504C119.748 193.347 122.255 195.79 122.255 195.79C123.091 195.79 123.927 196.604 123.927 195.79C126.434 194.976 128.941 191.718 129.777 190.09C129.777 190.09 130.612 189.275 130.612 190.09C130.612 190.09 131.448 190.904 130.612 190.904C130.612 190.904 127.269 196.604 123.927 197.419C124.762 199.047 123.927 199.047 123.927 199.047Z" fill="#3B2314"/>
<path d="M146.491 58.1708C154.848 63.8711 159.863 71.2 162.37 76.9002C164.877 69.5713 165.713 60.6138 164.041 48.399C164.041 48.399 155.684 50.8419 146.491 58.1708Z" fill="#3B2314"/>
<path d="M162.37 78.5282C161.534 78.5282 161.534 78.5282 161.534 77.7139C159.027 72.0137 154.013 64.6848 145.656 58.9845L144.82 58.1702C144.82 58.1702 144.82 57.3559 145.656 57.3559C154.848 49.2127 163.206 47.584 164.041 47.584H164.877L165.713 48.3984C167.384 58.9845 166.549 68.7564 164.041 76.8996C163.206 77.7139 163.206 78.5282 162.37 78.5282ZM148.163 58.1702C154.848 63.0561 159.027 68.7564 161.534 73.6423C163.206 66.3134 164.041 58.9845 162.37 50.027C160.698 50.8413 154.848 53.2843 148.163 58.1702Z" fill="#3B2314"/>
<path d="M151.179 279.029C146.832 279.298 142.052 277.786 141.114 274.77C140.572 273.027 141.429 271.324 142.259 269.676C143.168 267.871 143.953 266.311 142.818 265.027C142.302 264.443 141.398 263.999 140.5 263.607C139.329 263.097 138.072 262.626 136.856 262.17C134.756 261.383 132.584 260.568 130.654 259.488C126.86 257.365 124.941 254.534 125.521 251.914C126.022 249.65 128.208 247.915 130.323 246.238C132.491 244.518 134.539 242.893 134.491 240.904C134.426 238.199 130.478 236.257 126.994 234.544L126.45 234.276C122.199 232.176 118.116 228.532 120.599 225.173C121.465 224.001 122.911 223.248 124.31 222.52C125.252 222.074 126.112 221.548 126.869 220.954C129.425 218.737 128.121 215.454 127.441 214.145C126.925 213.15 126.249 212.158 125.596 211.198C124.632 209.78 123.634 208.314 123.055 206.732L122.96 206.473C121.564 202.665 121.565 202.523 123.041 198.87L123.225 198.414L125.429 198.849L125.244 199.307C123.909 202.613 123.909 202.613 125.178 206.074L125.273 206.334C125.797 207.765 126.704 209.097 127.664 210.508C128.34 211.502 129.039 212.53 129.593 213.598C131.31 216.904 130.967 219.953 128.651 221.961C127.775 222.663 126.776 223.283 125.676 223.807C124.431 224.455 123.256 225.067 122.632 225.91C120.702 228.523 124.953 231.574 127.77 232.965L128.31 233.231C132.046 235.069 136.696 237.356 136.781 240.877C136.843 243.488 134.401 245.425 132.039 247.299C130.056 248.873 128.182 250.359 127.784 252.16C127.251 254.567 129.655 256.877 132.083 258.236C133.85 259.224 135.835 259.968 137.938 260.757C139.185 261.224 140.475 261.708 141.71 262.246C142.845 262.741 144.001 263.318 144.766 264.184C146.477 266.12 145.431 268.199 144.418 270.209C143.662 271.712 142.947 273.131 143.351 274.428C144.08 276.773 148.473 277.84 151.958 277.331C154.81 276.915 157.32 275.818 159.977 274.657C160.836 274.282 161.725 273.894 162.62 273.533C167.505 271.569 171.931 271.089 175.421 272.144C176.52 272.507 177.56 272.951 178.523 273.47C179.273 273.869 180.069 274.225 180.903 274.532C182.8 275.112 184.939 275.169 186.894 274.694C188.849 274.219 190.477 273.245 191.452 271.967C191.62 271.722 191.771 271.459 191.931 271.181C192.44 270.297 193.016 269.296 194.331 268.667C195.709 268.01 197.406 268.019 198.645 268.027L211.448 268.103L211.428 269.706L198.626 269.63C197.411 269.623 196.348 269.645 195.621 269.992C194.88 270.346 194.48 271.042 194.055 271.78C193.889 272.069 193.716 272.369 193.516 272.661C192.276 274.324 190.176 275.593 187.645 276.209C185.114 276.824 182.343 276.74 179.898 275.973C178.949 275.627 178.043 275.226 177.191 274.774C176.359 274.323 175.461 273.935 174.512 273.616C170.975 272.545 166.713 273.736 163.761 274.924C162.902 275.269 162.031 275.65 161.189 276.018C158.479 277.202 155.676 278.427 152.425 278.901C152.013 278.961 151.597 279.004 151.179 279.029Z" fill="#ED5564"/>
<g clip-path="url(#clip0)">
<path d="M300.159 250.685C297.628 244.619 294.005 239.169 289.39 234.491C284.772 229.814 279.394 226.14 273.41 223.575C267.213 220.917 260.628 219.569 253.841 219.569C247.056 219.569 240.472 220.917 234.274 223.575C228.288 226.14 222.911 229.814 218.294 234.491C213.68 239.169 210.055 244.619 207.523 250.685C204.902 256.967 203.571 263.64 203.571 270.517C203.571 277.395 204.901 284.068 207.523 290.349C210.055 296.413 213.68 301.864 218.294 306.541C222.911 311.221 228.288 314.893 234.274 317.459C240.472 320.114 247.056 321.464 253.842 321.464C260.628 321.464 267.213 320.114 273.411 317.459C279.394 314.893 284.772 311.221 289.39 306.541C294.005 301.864 297.628 296.413 300.16 290.349C302.78 284.068 304.112 277.395 304.112 270.517C304.111 263.64 302.78 256.967 300.159 250.685Z" fill="#ED5564"/>
<path d="M203.591 271.946C203.763 278.318 205.082 284.503 207.523 290.349C210.054 296.413 213.68 301.863 218.294 306.54C222.91 311.22 228.287 314.893 234.274 317.458C240.472 320.114 247.056 321.463 253.841 321.463C260.628 321.463 267.213 320.114 273.41 317.458C279.394 314.892 284.772 311.22 289.39 306.54C294.004 301.863 297.628 296.412 300.159 290.349C302.602 284.503 303.921 278.318 304.093 271.946H203.591Z" fill="#E6E9ED"/>
<path d="M303.872 275.535C304.031 273.874 304.111 272.201 304.111 270.516C304.111 268.622 304.01 266.744 303.811 264.886C301.313 265.276 297.726 265.785 293.207 266.29C284.628 267.249 270.839 268.393 253.841 268.393C236.845 268.393 223.055 267.249 214.477 266.29C209.956 265.784 206.371 265.276 203.874 264.886C203.673 266.744 203.571 268.622 203.571 270.516C203.571 272.201 203.651 273.874 203.811 275.535C211.966 276.779 229.934 279.005 253.841 279.005C277.749 279.005 295.716 276.779 303.872 275.535Z" fill="#434A54"/>
<path d="M264.316 272.638C264.316 278.501 259.625 283.253 253.841 283.253C248.058 283.253 243.368 278.501 243.368 272.638C243.368 266.776 248.058 262.025 253.841 262.025C259.625 262.025 264.316 266.777 264.316 272.638Z" fill="#E6E9ED"/>
<path d="M253.841 253.533C243.446 253.533 234.99 262.105 234.99 272.638C234.99 283.172 243.446 291.742 253.841 291.742C264.236 291.742 272.692 283.172 272.692 272.638C272.692 262.105 264.236 253.533 253.841 253.533ZM253.841 281.132C249.222 281.132 245.463 277.32 245.463 272.638C245.463 267.957 249.222 264.148 253.841 264.148C258.462 264.148 262.217 267.957 262.217 272.638C262.217 277.32 258.462 281.132 253.841 281.132Z" fill="#434A54"/>
<path opacity="0.2" d="M300.159 250.685C297.628 244.618 294.005 239.168 289.39 234.49C284.772 229.813 279.394 226.139 273.41 223.574C267.213 220.917 260.628 219.569 253.841 219.569C253.14 219.569 252.442 219.584 251.747 219.612C257.793 219.861 263.66 221.19 269.219 223.574C275.208 226.139 280.584 229.813 285.199 234.49C289.813 239.168 293.44 244.618 295.971 250.685C298.594 256.966 299.92 263.639 299.92 270.516C299.92 277.394 298.594 284.068 295.971 290.349C293.44 296.413 289.813 301.864 285.199 306.541C280.584 311.221 275.208 314.893 269.219 317.458C263.66 319.84 257.793 321.171 251.747 321.42C252.442 321.448 253.14 321.464 253.841 321.464C260.628 321.464 267.213 320.114 273.41 317.458C279.394 314.893 284.772 311.221 289.39 306.541C294.005 301.864 297.628 296.413 300.159 290.349C302.78 284.068 304.111 277.394 304.111 270.516C304.111 263.639 302.78 256.966 300.159 250.685Z" fill="white"/>
<path opacity="0.1" d="M207.523 290.349C210.055 296.413 213.68 301.864 218.294 306.541C222.911 311.221 228.288 314.893 234.274 317.459C240.472 320.114 247.056 321.464 253.842 321.464C254.543 321.464 255.241 321.449 255.936 321.42C249.889 321.172 244.022 319.841 238.462 317.459C232.476 314.893 227.1 311.221 222.484 306.541C217.868 301.864 214.244 296.413 211.712 290.349C209.09 284.068 207.761 277.395 207.761 270.517C207.761 263.64 209.09 256.967 211.711 250.685C214.244 244.619 217.868 239.169 222.484 234.492C227.1 229.814 232.476 226.14 238.462 223.574C244.021 221.191 249.889 219.861 255.935 219.613C255.24 219.585 254.542 219.569 253.841 219.569C247.056 219.569 240.472 220.917 234.274 223.575C228.288 226.14 222.911 229.814 218.294 234.492C213.68 239.169 210.055 244.619 207.523 250.685C204.902 256.967 203.571 263.64 203.571 270.517C203.571 277.395 204.902 284.068 207.523 290.349Z" fill="black"/>
</g>
<path d="M67.0488 289.123C73.2604 289.123 78.2959 284.215 78.2959 278.161C78.2959 272.107 73.2604 267.199 67.0488 267.199C60.8372 267.199 55.8018 272.107 55.8018 278.161C55.8018 284.215 60.8372 289.123 67.0488 289.123Z" fill="#AEE8BC"/>
<path d="M267.602 130.86C273.813 130.86 278.849 125.952 278.849 119.898C278.849 113.844 273.813 108.936 267.602 108.936C261.39 108.936 256.354 113.844 256.354 119.898C256.354 125.952 261.39 130.86 267.602 130.86Z" fill="#AEE8BC"/>
<path d="M37.0798 115.512C40.4306 115.512 43.1469 112.779 43.1469 109.409C43.1469 106.038 40.4306 103.306 37.0798 103.306C33.729 103.306 31.0127 106.038 31.0127 109.409C31.0127 112.779 33.729 115.512 37.0798 115.512Z" fill="#215273"/>
<path d="M183.817 198.414C189.025 198.414 193.247 194.167 193.247 188.928C193.247 183.689 189.025 179.442 183.817 179.442C178.609 179.442 174.387 183.689 174.387 188.928C174.387 194.167 178.609 198.414 183.817 198.414Z" fill="#AEE8BC"/>
<path d="M232.932 52.0169C238.14 52.0169 242.362 47.7699 242.362 42.5309C242.362 37.2919 238.14 33.0449 232.932 33.0449C227.724 33.0449 223.501 37.2919 223.501 42.5309C223.501 47.7699 227.724 52.0169 232.932 52.0169Z" fill="#AEE8BC"/>
<defs>
<linearGradient id="paint0_linear" x1="107413" y1="86416.1" x2="105515" y2="57375.1" gradientUnits="userSpaceOnUse">
<stop stop-color="#808080" stop-opacity="0.25"/>
<stop offset="0.53514" stop-color="#808080" stop-opacity="0.12"/>
<stop offset="1" stop-color="#808080" stop-opacity="0.1"/>
</linearGradient>
<clipPath id="clip0">
<rect width="100.54" height="101.895" fill="white" transform="translate(203.571 219.568)"/>
</clipPath>
</defs>
</svg>
