<svg width="228" height="217" viewBox="0 0 228 217" fill="none" xmlns="http://www.w3.org/2000/svg">
<path d="M11.03 3.82062L14.3928 6.94366L18.8666 5.92045L16.9375 10.076L19.2769 14.017L14.7357 13.4767L11.7201 16.9239L10.8262 12.4277L6.62372 10.6288L10.6228 8.38398L11.03 3.82062Z" fill="#FFDF40"/>
<path d="M7.80048 114.582L11.1633 117.705L15.6371 116.682L13.708 120.837L16.0474 124.778L11.5062 124.238L8.49059 127.685L7.5967 123.189L3.39423 121.39L7.39333 119.145L7.80048 114.582Z" fill="#FFDF40"/>
<path d="M180.036 93.0714L183.399 96.1944L187.872 95.1712L185.943 99.3267L188.283 103.268L183.742 102.727L180.726 106.175L179.832 101.678L175.63 99.8796L179.629 97.6347L180.036 93.0714Z" fill="#FFDF40"/>
<g filter="url(#filter0_d)">
<path d="M42.78 204.208L43.0965 200.661L45.7117 203.09L45.9056 203.27L46.1635 203.211L49.6427 202.415L48.1432 205.645L48.0322 205.884L48.1668 206.111L49.9888 209.181L46.454 208.76L46.1922 208.729L46.0186 208.927L43.6716 211.61L42.9758 208.11L42.9244 207.851L42.6821 207.748L39.4122 206.348L42.5267 204.6L42.7566 204.471L42.78 204.208Z" stroke="#E8D7E2"/>
</g>
<path d="M217.056 1.63154L220.419 4.75458L224.893 3.73136L222.964 7.88692L225.303 11.8279L220.762 11.2876L217.746 14.7348L216.853 10.2386L212.65 8.43975L216.649 6.19489L217.056 1.63154Z" fill="#FFDF40"/>
<path d="M38.5277 44.1842C42.0978 44.1842 44.9919 41.273 44.9919 37.6818C44.9919 34.0906 42.0978 31.1793 38.5277 31.1793C34.9576 31.1793 32.0635 34.0906 32.0635 37.6818C32.0635 41.273 34.9576 44.1842 38.5277 44.1842Z" fill="#A5678E"/>
<path d="M175.874 174.586C179.444 174.586 182.339 171.675 182.339 168.083C182.339 164.492 179.444 161.581 175.874 161.581C172.304 161.581 169.41 164.492 169.41 168.083C169.41 171.675 172.304 174.586 175.874 174.586Z" fill="#A5678E"/>
<path d="M176.516 11.5335C176.516 13.8657 174.637 15.7513 172.326 15.7513C170.014 15.7513 168.136 13.8657 168.136 11.5335C168.136 9.20127 170.014 7.31567 172.326 7.31567C174.637 7.31567 176.516 9.20126 176.516 11.5335Z" fill="#FFD180" stroke="#F2F2F1"/>
<path d="M210.918 53.6197C210.918 55.9519 209.039 57.8375 206.728 57.8375C204.417 57.8375 202.538 55.9519 202.538 53.6197C202.538 51.2875 204.417 49.4019 206.728 49.4019C209.039 49.4019 210.918 51.2875 210.918 53.6197Z" stroke="#F3F4F3"/>
<path d="M196.004 58.3376C196.004 60.6698 194.125 62.5554 191.814 62.5554C189.503 62.5554 187.624 60.6698 187.624 58.3376C187.624 56.0053 189.503 54.1198 191.814 54.1198C194.125 54.1198 196.004 56.0053 196.004 58.3376Z" stroke="#E8D7E2"/>
<g filter="url(#filter1_d)">
<path d="M196.004 203.673C196.004 206.005 194.125 207.89 191.814 207.89C189.503 207.89 187.624 206.005 187.624 203.673C187.624 201.34 189.503 199.455 191.814 199.455C194.125 199.455 196.004 201.34 196.004 203.673Z" stroke="#E8D7E2"/>
</g>
<path d="M11.0413 176.733C11.0413 179.066 9.16254 180.951 6.8512 180.951C4.53987 180.951 2.66113 179.066 2.66113 176.733C2.66113 174.401 4.53987 172.516 6.8512 172.516C9.16254 172.516 11.0413 174.401 11.0413 176.733Z" fill="#FFD180" stroke="#F2F2F1"/>
<path d="M141.234 135.604C141.234 137.937 139.355 139.822 137.044 139.822C134.732 139.822 132.854 137.937 132.854 135.604C132.854 133.272 134.732 131.387 137.044 131.387C139.355 131.387 141.234 133.272 141.234 135.604Z" stroke="#E8D7E2"/>
<path d="M56.9244 128.366C59.5147 128.366 61.6145 126.254 61.6145 123.648C61.6145 121.043 59.5147 118.931 56.9244 118.931C54.3342 118.931 52.2344 121.043 52.2344 123.648C52.2344 126.254 54.3342 128.366 56.9244 128.366Z" fill="#FFD180"/>
<path d="M202.038 135.045C204.628 135.045 206.728 132.933 206.728 130.327C206.728 127.721 204.628 125.609 202.038 125.609C199.447 125.609 197.348 127.721 197.348 130.327C197.348 132.933 199.447 135.045 202.038 135.045Z" fill="#FFD180"/>
<path d="M60.8971 50.7804C63.4874 50.7804 65.5872 48.6682 65.5872 46.0626C65.5872 43.457 63.4874 41.3448 60.8971 41.3448C58.3068 41.3448 56.207 43.457 56.207 46.0626C56.207 48.6682 58.3068 50.7804 60.8971 50.7804Z" fill="#FFD180"/>
<path d="M9.58131 36.627C9.58131 38.9593 7.70257 40.8448 5.39124 40.8448C3.07991 40.8448 1.20117 38.9593 1.20117 36.627C1.20117 34.2948 3.07991 32.4092 5.39124 32.4092C7.70257 32.4092 9.58131 34.2948 9.58131 36.627Z" fill="#FFD180" stroke="#F2F2F1"/>
<path d="M112.092 185.121C153.53 185.121 187.122 151.529 187.122 110.091C187.122 68.6531 153.53 35.0612 112.092 35.0612C70.6544 35.0612 37.0625 68.6531 37.0625 110.091C37.0625 151.529 70.6544 185.121 112.092 185.121Z" fill="#FFC727"/>
<path opacity="0.1" d="M112.08 185.121C100.307 185.121 88.6981 182.35 78.1935 177.032C67.689 171.714 58.5833 163.999 51.6129 154.511C44.6424 145.022 40.0029 134.026 38.0694 122.412C36.1359 110.798 36.9628 98.8922 40.4831 87.6571C44.0035 76.4219 50.1185 66.1729 58.3337 57.7388C66.5488 49.3048 76.6336 42.9225 87.7723 39.108C98.9111 35.2935 110.791 34.1539 122.452 35.7815C134.113 37.409 145.227 41.7579 154.895 48.4765C141.681 40.0319 125.865 36.6333 110.348 38.9036C94.8307 41.174 80.6517 48.9612 70.4103 60.8377C60.1688 72.7142 54.5512 87.8841 54.5872 103.566C54.6232 119.249 60.3105 134.393 70.6064 146.222C80.9022 158.051 95.1169 165.773 110.644 167.973C126.172 170.172 141.972 166.7 155.147 158.195C168.323 149.69 177.992 136.721 182.381 121.665C186.77 106.61 185.586 90.4763 179.045 76.2231C184.834 87.6671 187.593 100.404 187.059 113.218C186.524 126.032 182.714 138.495 175.992 149.417C169.27 160.339 159.861 169.356 148.662 175.606C137.463 181.857 124.849 185.132 112.025 185.121H112.08Z" fill="black"/>
<path d="M76.2574 105.824C82.0933 105.824 86.8243 101.093 86.8243 95.2569C86.8243 89.4209 82.0933 84.6899 76.2574 84.6899C70.4214 84.6899 65.6904 89.4209 65.6904 95.2569C65.6904 101.093 70.4214 105.824 76.2574 105.824Z" fill="#263238"/>
<path d="M147.915 105.824C153.751 105.824 158.482 101.093 158.482 95.2569C158.482 89.4209 153.751 84.6899 147.915 84.6899C142.079 84.6899 137.348 89.4209 137.348 95.2569C137.348 101.093 142.079 105.824 147.915 105.824Z" fill="#263238"/>
<path d="M128.009 92.0511C128.009 96.2727 126.332 100.321 123.347 103.306C120.361 106.292 116.313 107.969 112.091 107.969C107.87 107.969 103.821 106.292 100.836 103.306C97.8508 100.321 96.1738 96.2727 96.1738 92.0511H128.009Z" fill="#263238"/>
<path d="M124.49 102.026C122.999 103.881 121.11 105.378 118.963 106.406C116.817 107.435 114.466 107.969 112.086 107.969C109.706 107.969 107.356 107.435 105.209 106.406C103.062 105.378 101.173 103.881 99.6816 102.026C103.136 99.0642 107.536 97.436 112.086 97.436C116.636 97.436 121.036 99.0642 124.49 102.026V102.026Z" fill="#DD6A57"/>
<defs>
<filter id="filter0_d" x="36.0508" y="198.955" width="17.8822" height="17.4433" filterUnits="userSpaceOnUse" color-interpolation-filters="sRGB">
<feFlood flood-opacity="0" result="BackgroundImageFix"/>
<feColorMatrix in="SourceAlpha" type="matrix" values="0 0 0 0 0 0 0 0 0 0 0 0 0 0 0 0 0 0 127 0"/>
<feOffset dy="1"/>
<feGaussianBlur stdDeviation="0.5"/>
<feColorMatrix type="matrix" values="0 0 0 0 0 0 0 0 0 0 0 0 0 0 0 0 0 0 0.1 0"/>
<feBlend mode="normal" in2="BackgroundImageFix" result="effect1_dropShadow"/>
<feBlend mode="normal" in="SourceGraphic" in2="effect1_dropShadow" result="shape"/>
</filter>
<filter id="filter1_d" x="186.124" y="198.955" width="11.3801" height="11.4356" filterUnits="userSpaceOnUse" color-interpolation-filters="sRGB">
<feFlood flood-opacity="0" result="BackgroundImageFix"/>
<feColorMatrix in="SourceAlpha" type="matrix" values="0 0 0 0 0 0 0 0 0 0 0 0 0 0 0 0 0 0 127 0"/>
<feOffset dy="1"/>
<feGaussianBlur stdDeviation="0.5"/>
<feColorMatrix type="matrix" values="0 0 0 0 0 0 0 0 0 0 0 0 0 0 0 0 0 0 0.1 0"/>
<feBlend mode="normal" in2="BackgroundImageFix" result="effect1_dropShadow"/>
<feBlend mode="normal" in="SourceGraphic" in2="effect1_dropShadow" result="shape"/>
</filter>
</defs>
</svg>
