<svg width="306" height="81" viewBox="0 0 306 81" fill="none" xmlns="http://www.w3.org/2000/svg">
<path d="M127.623 41.0371C127.623 42.709 127.333 44.1777 126.755 45.4434C126.177 46.7012 125.349 47.6699 124.271 48.3496C123.201 49.0215 121.966 49.3574 120.568 49.3574C119.185 49.3574 117.951 49.0215 116.865 48.3496C115.787 47.6699 114.951 46.7051 114.357 45.4551C113.771 44.2051 113.474 42.7637 113.466 41.1309V40.1699C113.466 38.5059 113.759 37.0371 114.345 35.7637C114.939 34.4902 115.771 33.5176 116.841 32.8457C117.919 32.166 119.154 31.8262 120.544 31.8262C121.935 31.8262 123.166 32.1621 124.236 32.834C125.314 33.498 126.146 34.459 126.732 35.7168C127.318 36.9668 127.615 38.4238 127.623 40.0879V41.0371ZM124.658 40.1465C124.658 38.2559 124.298 36.8066 123.58 35.7988C122.869 34.791 121.857 34.2871 120.544 34.2871C119.263 34.2871 118.259 34.791 117.533 35.7988C116.814 36.7988 116.447 38.2168 116.431 40.0527V41.0371C116.431 42.9121 116.794 44.3613 117.521 45.3848C118.255 46.4082 119.271 46.9199 120.568 46.9199C121.88 46.9199 122.888 46.4199 123.591 45.4199C124.302 44.4199 124.658 42.959 124.658 41.0371V40.1465ZM133.227 37.8262C134.157 36.748 135.332 36.209 136.754 36.209C139.457 36.209 140.828 37.752 140.868 40.8379V49.123H138.02V40.9434C138.02 40.0684 137.828 39.4512 137.446 39.0918C137.071 38.7246 136.516 38.541 135.782 38.541C134.641 38.541 133.789 39.0488 133.227 40.0645V49.123H130.379V31.123H133.227V37.8262ZM144.281 52.9668L142.745 52.0527C143.198 51.3418 143.507 50.7207 143.671 50.1895C143.843 49.666 143.933 49.1309 143.941 48.584V46.3691H146.507L146.495 48.4199C146.488 49.248 146.277 50.0762 145.863 50.9043C145.456 51.7402 144.929 52.4277 144.281 52.9668ZM158.396 49.123H155.548V36.4434H158.396V49.123ZM155.372 33.1504C155.372 32.7129 155.509 32.3496 155.782 32.0605C156.063 31.7715 156.462 31.627 156.978 31.627C157.493 31.627 157.892 31.7715 158.173 32.0605C158.454 32.3496 158.595 32.7129 158.595 33.1504C158.595 33.5801 158.454 33.9395 158.173 34.2285C157.892 34.5098 157.493 34.6504 156.978 34.6504C156.462 34.6504 156.063 34.5098 155.782 34.2285C155.509 33.9395 155.372 33.5801 155.372 33.1504ZM164.269 36.4434L164.351 37.9082C165.289 36.7754 166.519 36.209 168.043 36.209C170.683 36.209 172.027 37.7207 172.074 40.7441V49.123H169.226V40.9082C169.226 40.1035 169.051 39.5098 168.699 39.127C168.355 38.7363 167.789 38.541 167 38.541C165.851 38.541 164.996 39.0605 164.433 40.0996V49.123H161.586V36.4434H164.269ZM180.315 47.084C181.026 47.084 181.616 46.877 182.085 46.4629C182.553 46.0488 182.803 45.5371 182.835 44.9277H185.518C185.487 45.7168 185.241 46.4551 184.78 47.1426C184.319 47.8223 183.694 48.3613 182.905 48.7598C182.116 49.1582 181.264 49.3574 180.35 49.3574C178.577 49.3574 177.171 48.7832 176.132 47.6348C175.093 46.4863 174.573 44.9004 174.573 42.877V42.584C174.573 40.6543 175.089 39.1113 176.12 37.9551C177.151 36.791 178.557 36.209 180.339 36.209C181.846 36.209 183.073 36.6504 184.018 37.5332C184.971 38.4082 185.471 39.5605 185.518 40.9902H182.835C182.803 40.2637 182.553 39.666 182.085 39.1973C181.624 38.7285 181.034 38.4941 180.315 38.4941C179.393 38.4941 178.682 38.8301 178.182 39.502C177.682 40.166 177.428 41.1777 177.421 42.5371V42.9941C177.421 44.3691 177.667 45.3965 178.159 46.0762C178.659 46.748 179.378 47.084 180.315 47.084ZM187.256 42.666C187.256 41.4238 187.502 40.3066 187.994 39.3145C188.486 38.3145 189.177 37.5488 190.068 37.0176C190.959 36.4785 191.982 36.209 193.138 36.209C194.849 36.209 196.236 36.7598 197.298 37.8613C198.369 38.9629 198.947 40.4238 199.033 42.2441L199.045 42.9121C199.045 44.1621 198.802 45.2793 198.318 46.2637C197.841 47.248 197.154 48.0098 196.256 48.5488C195.365 49.0879 194.334 49.3574 193.162 49.3574C191.373 49.3574 189.939 48.7637 188.861 47.5762C187.791 46.3809 187.256 44.791 187.256 42.8066V42.666ZM190.103 42.9121C190.103 44.2168 190.373 45.2402 190.912 45.9824C191.451 46.7168 192.201 47.084 193.162 47.084C194.123 47.084 194.869 46.709 195.4 45.959C195.939 45.209 196.209 44.1113 196.209 42.666C196.209 41.3848 195.931 40.3691 195.377 39.6191C194.83 38.8691 194.084 38.4941 193.138 38.4941C192.209 38.4941 191.47 38.8652 190.923 39.6074C190.377 40.3418 190.103 41.4434 190.103 42.9121ZM208.211 39.0449C207.836 38.9824 207.45 38.9512 207.051 38.9512C205.747 38.9512 204.868 39.4512 204.415 40.4512V49.123H201.567V36.4434H204.286L204.356 37.8613C205.043 36.7598 205.997 36.209 207.215 36.209C207.622 36.209 207.958 36.2637 208.223 36.373L208.211 39.0449ZM216.769 39.0449C216.394 38.9824 216.007 38.9512 215.609 38.9512C214.304 38.9512 213.425 39.4512 212.972 40.4512V49.123H210.124V36.4434H212.843L212.913 37.8613C213.601 36.7598 214.554 36.209 215.773 36.209C216.179 36.209 216.515 36.2637 216.781 36.373L216.769 39.0449ZM224.037 49.3574C222.233 49.3574 220.768 48.791 219.643 47.6582C218.526 46.5176 217.967 45.002 217.967 43.1113V42.7598C217.967 41.4941 218.209 40.3652 218.694 39.373C219.186 38.373 219.873 37.5957 220.756 37.041C221.639 36.4863 222.623 36.209 223.709 36.209C225.436 36.209 226.768 36.7598 227.705 37.8613C228.651 38.9629 229.123 40.5215 229.123 42.5371V43.6855H220.838C220.924 44.7324 221.272 45.5605 221.881 46.1699C222.498 46.7793 223.272 47.084 224.201 47.084C225.506 47.084 226.569 46.5566 227.389 45.502L228.924 46.9668C228.416 47.7246 227.737 48.3145 226.885 48.7363C226.041 49.1504 225.092 49.3574 224.037 49.3574ZM223.698 38.4941C222.916 38.4941 222.283 38.7676 221.799 39.3145C221.323 39.8613 221.018 40.623 220.885 41.5996H226.311V41.3887C226.248 40.4355 225.994 39.7168 225.549 39.2324C225.104 38.7402 224.487 38.4941 223.698 38.4941ZM236.673 47.084C237.384 47.084 237.974 46.877 238.443 46.4629C238.911 46.0488 239.161 45.5371 239.193 44.9277H241.876C241.845 45.7168 241.599 46.4551 241.138 47.1426C240.677 47.8223 240.052 48.3613 239.263 48.7598C238.474 49.1582 237.622 49.3574 236.708 49.3574C234.935 49.3574 233.528 48.7832 232.489 47.6348C231.45 46.4863 230.931 44.9004 230.931 42.877V42.584C230.931 40.6543 231.446 39.1113 232.478 37.9551C233.509 36.791 234.915 36.209 236.696 36.209C238.204 36.209 239.431 36.6504 240.376 37.5332C241.329 38.4082 241.829 39.5605 241.876 40.9902H239.193C239.161 40.2637 238.911 39.666 238.443 39.1973C237.982 38.7285 237.392 38.4941 236.673 38.4941C235.751 38.4941 235.04 38.8301 234.54 39.502C234.04 40.166 233.786 41.1777 233.778 42.5371V42.9941C233.778 44.3691 234.025 45.3965 234.517 46.0762C235.017 46.748 235.736 47.084 236.673 47.084ZM247.715 33.3613V36.4434H249.953V38.5527H247.715V45.6309C247.715 46.1152 247.809 46.4668 247.996 46.6855C248.191 46.8965 248.535 47.002 249.027 47.002C249.356 47.002 249.688 46.9629 250.023 46.8848V49.0879C249.375 49.2676 248.75 49.3574 248.148 49.3574C245.961 49.3574 244.867 48.1504 244.867 45.7363V38.5527H242.781V36.4434H244.867V33.3613H247.715ZM254.034 46.123C254.565 46.123 254.976 46.2754 255.265 46.5801C255.554 46.877 255.698 47.252 255.698 47.7051C255.698 48.1504 255.554 48.5215 255.265 48.8184C254.976 49.1074 254.565 49.252 254.034 49.252C253.526 49.252 253.124 49.1074 252.827 48.8184C252.53 48.5293 252.382 48.1582 252.382 47.7051C252.382 47.252 252.526 46.877 252.815 46.5801C253.104 46.2754 253.511 46.123 254.034 46.123Z" fill="#215273"/>
<path d="M88.5189 21.0558C92.089 21.0558 94.9831 18.1446 94.9831 14.5534C94.9831 10.9622 92.089 8.0509 88.5189 8.0509C84.9488 8.0509 82.0547 10.9622 82.0547 14.5534C82.0547 18.1446 84.9488 21.0558 88.5189 21.0558Z" fill="#ED5564"/>
<path d="M297.718 30.4914C301.911 30.4914 305.309 27.0724 305.309 22.8548C305.309 18.6372 301.911 15.2181 297.718 15.2181C293.525 15.2181 290.126 18.6372 290.126 22.8548C290.126 27.0724 293.525 30.4914 297.718 30.4914Z" fill="#A6A6A6"/>
<path d="M81.1261 67.4774C82.4764 67.4774 83.5711 66.3763 83.5711 65.018C83.5711 63.6597 82.4764 62.5586 81.1261 62.5586C79.7758 62.5586 78.6812 63.6597 78.6812 65.018C78.6812 66.3763 79.7758 67.4774 81.1261 67.4774Z" fill="#FFBD89"/>
<path d="M260.046 72.1953C262.636 72.1953 264.736 70.083 264.736 67.4774C264.736 64.8719 262.636 62.7596 260.046 62.7596C257.455 62.7596 255.355 64.8719 255.355 67.4774C255.355 70.083 257.455 72.1953 260.046 72.1953Z" fill="#A6A6A6"/>
<path d="M115.079 22.9342C115.079 25.2664 113.2 27.152 110.889 27.152C108.577 27.152 106.699 25.2664 106.699 22.9342C106.699 20.602 108.577 18.7164 110.889 18.7164C113.2 18.7164 115.079 20.602 115.079 22.9342Z" fill="#FFBD89" stroke="#FAF7F4"/>
<path d="M286.096 53.1231C286.096 55.4553 284.217 57.3409 281.906 57.3409C279.595 57.3409 277.716 55.4553 277.716 53.1231C277.716 50.7909 279.595 48.9053 281.906 48.9053C284.217 48.9053 286.096 50.7909 286.096 53.1231Z" fill="#FFBD89" stroke="#F9F5F3"/>
<path d="M4.19761 19.2712C6.24325 19.2712 7.90156 17.6031 7.90156 15.5453C7.90156 13.4876 6.24325 11.8195 4.19761 11.8195C2.15197 11.8195 0.493652 13.4876 0.493652 15.5453C0.493652 17.6031 2.15197 19.2712 4.19761 19.2712Z" fill="#FFBD89"/>
<path d="M28.1696 67.2765C30.7598 67.2765 32.8596 65.1643 32.8596 62.5587C32.8596 59.9531 30.7598 57.8409 28.1696 57.8409C25.5793 57.8409 23.4795 59.9531 23.4795 62.5587C23.4795 65.1643 25.5793 67.2765 28.1696 67.2765Z" fill="#FFBD89"/>
<path d="M231.632 21.0558C231.632 23.388 229.753 25.2736 227.442 25.2736C225.131 25.2736 223.252 23.388 223.252 21.0558C223.252 18.7236 225.131 16.838 227.442 16.838C229.753 16.838 231.632 18.7236 231.632 21.0558Z" stroke="#A6A6A6"/>
<path d="M76.4814 60.1231C87.5271 49.0774 87.5271 31.1687 76.4814 20.1231C65.4357 9.07736 47.5271 9.07736 36.4814 20.1231C25.4357 31.1687 25.4358 49.0774 36.4814 60.123C47.5271 71.1687 65.4357 71.1688 76.4814 60.1231Z" fill="#FFC727"/>
<path opacity="0.1" d="M46.9251 66.7429C42.7435 65.2461 38.9731 62.7858 35.919 59.5611C32.8649 56.3364 30.6131 52.4379 29.3457 48.1812C28.0783 43.9244 27.831 39.4291 28.6237 35.059C29.4165 30.6889 31.2271 26.5669 33.909 23.0267C36.5909 19.4864 40.0686 16.6273 44.0608 14.6808C48.0529 12.7344 52.4473 11.7553 56.8882 11.8227C61.3291 11.8902 65.6917 13.0023 69.6229 15.0691C73.5541 17.136 76.9434 20.0993 79.5165 23.7195C75.9041 19.0451 70.728 15.8293 64.937 14.6616C59.1461 13.4938 53.1282 14.4523 47.9866 17.3614C42.8449 20.2705 38.924 24.9353 36.9426 30.5006C34.9612 36.0659 35.0519 42.159 37.1983 47.6628C39.3446 53.1667 43.4027 57.7126 48.6287 60.4672C53.8547 63.2219 59.8984 64.0007 65.652 62.661C71.4057 61.3213 76.4837 57.9527 79.9553 53.1728C83.4269 48.393 85.0594 42.522 84.5537 36.6362C85.148 41.432 84.5044 46.3002 82.684 50.7768C80.8636 55.2534 77.9271 59.1892 74.1544 62.2092C70.3817 65.2292 65.8985 67.2327 61.132 68.0289C56.3655 68.8251 51.4745 68.3873 46.9251 66.7574V66.7429Z" fill="black"/>
<path d="M41.9072 28.945C42.0204 28.3813 42.2451 27.846 42.568 27.3703C42.8909 26.8946 43.3056 26.4883 43.7877 26.1751C44.2921 25.8369 44.8648 25.6141 45.4651 25.5225C46.0848 25.4351 46.7165 25.4994 47.3059 25.7099C47.8953 25.9204 48.4248 26.2708 48.849 26.731C49.2578 27.1811 49.5586 27.7183 49.7288 28.3021C49.9029 28.8505 49.9652 29.4282 49.9121 30.0012C49.8589 30.5741 49.6914 31.1305 49.4194 31.6376C49.5519 30.5984 49.3946 29.5428 48.965 28.5873C48.7799 28.15 48.5062 27.7559 48.1612 27.4297C47.8162 27.1035 47.4074 26.8523 46.9605 26.692C46.5136 26.5317 46.0383 26.4657 45.5646 26.4982C45.0909 26.5307 44.6291 26.661 44.2082 26.8808C43.2643 27.3417 42.4675 28.0565 41.9072 28.945V28.945Z" fill="#263238"/>
<path d="M67.3345 38.067C67.4479 37.5034 67.6727 36.9681 67.9956 36.4925C68.3185 36.0169 68.733 35.6105 69.2149 35.297C69.7196 34.9559 70.2946 34.7329 70.8972 34.6444C71.5142 34.5588 72.1427 34.6235 72.7293 34.833C73.3129 35.046 73.838 35.3938 74.2617 35.8481C74.6704 36.3009 74.9727 36.8393 75.1464 37.424C75.317 37.9732 75.3771 38.5507 75.3232 39.1233C75.2693 39.6958 75.1024 40.2519 74.8321 40.7596C74.9641 39.7208 74.8086 38.6658 74.3826 37.7092C74.197 37.2719 73.9228 36.8776 73.5774 36.5514C73.2319 36.2252 72.8226 35.974 72.3753 35.8137C71.928 35.6534 71.4524 35.5874 70.9784 35.62C70.5043 35.6525 70.0422 35.7829 69.621 36.0028C68.6834 36.4673 67.8922 37.1816 67.3345 38.067V38.067Z" fill="#263238"/>
<path d="M60.1712 44.7405C60.2966 43.3135 60.0044 41.8809 59.3301 40.617C58.6041 39.4564 57.4911 38.59 56.1879 38.1709C54.9179 37.6646 53.5068 37.6388 52.2191 38.0984C50.8949 38.6518 49.7408 39.5457 48.8739 40.6895C49.4421 39.2489 50.514 38.0636 51.8904 37.354C52.6112 36.9962 53.4014 36.7999 54.2059 36.7787C55.0021 36.7803 55.7919 36.9193 56.5408 37.1896C57.2874 37.4636 57.9845 37.8571 58.605 38.3546C59.2202 38.8716 59.7151 39.5167 60.0552 40.2448C60.6738 41.6719 60.7154 43.2833 60.1712 44.7405V44.7405Z" fill="#263238"/>
</svg>
