<svg width="228" height="233" viewBox="0 0 228 233" fill="none" xmlns="http://www.w3.org/2000/svg">
<path d="M184.123 72.9022L183.869 76.3122C183.832 76.7753 182.947 87.8008 176.418 100.686C170.816 111.738 159.913 126.132 139.33 134.222C137.724 134.857 136.057 135.45 134.329 136L132.402 129.95C137.24 128.427 141.901 126.388 146.303 123.869C156.795 117.811 164.952 109.165 170.64 98.0383C173.658 92.1144 175.809 85.7874 177.027 79.2516H153.609V72.9022H184.123Z" fill="#FFCE54"/>
<path opacity="0.1" d="M136.809 134.226C157.388 126.136 168.294 111.745 173.893 100.694C180.422 87.8081 181.311 76.79 181.344 76.3194L181.598 72.9094H184.213L183.959 76.3194C183.925 76.7826 183.036 87.8081 176.508 100.694C170.905 111.745 160.003 126.136 139.423 134.226C137.817 134.861 136.149 135.455 134.419 136.007L134.165 135.212C135.066 134.891 135.947 134.562 136.809 134.226Z" fill="white"/>
<path d="M95.6057 129.95L93.6785 136C91.948 135.447 90.2797 134.854 88.6737 134.219C68.0942 126.129 57.1881 111.738 51.5895 100.686C45.0608 87.8008 44.1719 76.7828 44.1383 76.3122L43.8843 72.9022H74.3838V79.2516H50.962C52.1863 85.7883 54.3435 92.1152 57.3674 98.0383C63.0557 109.165 71.2091 117.811 81.7005 123.865C86.1035 126.387 90.7655 128.427 95.6057 129.95V129.95Z" fill="#FFCE54"/>
<path opacity="0.1" d="M91.1909 134.226C70.6114 126.136 59.7054 111.745 54.1067 100.694C47.5781 87.8081 46.6892 76.79 46.6555 76.3194L46.4016 72.9094H43.7871L44.0411 76.3194C44.0747 76.7826 44.9636 87.8081 51.4923 100.694C57.0947 111.745 67.997 126.136 88.5765 134.226C90.1825 134.861 91.8508 135.455 93.5813 136.007L93.8353 135.212C92.9364 134.891 92.055 134.562 91.1909 134.226Z" fill="white"/>
<path d="M149.237 188.438V222.677H78.77V188.438L81.011 185.451C103.846 177.346 108.474 156.21 109.397 147.847C109.534 146.692 109.612 145.53 109.632 144.366H118.345C118.365 145.53 118.443 146.692 118.581 147.847C119.518 156.21 124.146 177.353 146.966 185.451L149.237 188.438Z" fill="#FFCE54"/>
<path opacity="0.1" d="M149.237 188.438H78.77V192.734H149.237V188.438Z" fill="black"/>
<path opacity="0.1" d="M84.7459 185.451C107.581 177.346 112.209 156.21 113.131 147.847C113.269 146.692 113.347 145.53 113.367 144.366H109.632C109.612 145.53 109.534 146.692 109.397 147.847C108.459 156.21 103.831 177.353 81.011 185.451L78.77 188.438V222.677H82.505V188.438L84.7459 185.451Z" fill="white"/>
<path opacity="0.1" d="M68.0645 72.9022H74.384V79.2516H68.6247C68.3981 77.16 68.2114 75.0435 68.0645 72.9022Z" fill="black"/>
<path opacity="0.1" d="M95.6073 129.949L93.6801 136C91.9496 135.447 90.2813 134.853 88.6753 134.218C86.0334 130.992 83.6988 127.526 81.7021 123.865C86.1051 126.387 90.7671 128.427 95.6073 129.949Z" fill="black"/>
<path opacity="0.1" d="M132.398 129.95C137.237 128.427 141.897 126.389 146.3 123.869C144.302 127.531 141.968 130.998 139.327 134.226C137.721 134.861 136.054 135.454 134.326 136.004L132.398 129.95Z" fill="black"/>
<path opacity="0.1" d="M159.937 72.9022C159.79 75.0435 159.603 77.16 159.377 79.2516H153.621V72.9022H159.937Z" fill="black"/>
<path opacity="0.1" d="M118.592 147.847C115.559 148.435 112.441 148.435 109.408 147.847C109.545 146.692 109.624 145.53 109.644 144.366H118.357C118.377 145.53 118.455 146.692 118.592 147.847V147.847Z" fill="black"/>
<path d="M68.8125 62.3844C68.9731 109.467 89.1418 147.541 114.005 147.541C138.869 147.541 159.034 109.467 159.198 62.3844H68.8125Z" fill="#FFCE54"/>
<path opacity="0.1" d="M76.8426 62.3844H68.8125C68.9731 109.467 89.1418 147.541 114.005 147.541C115.351 147.539 116.694 147.425 118.02 147.201C95.0355 143.362 76.9958 106.905 76.8426 62.3844Z" fill="white"/>
<path d="M137.968 201.544H90.0371V213.869H137.968V201.544Z" fill="#3F3D56"/>
<path opacity="0.1" d="M92.2781 203.225H137.968V201.544H90.0371V213.869H92.2781V203.225Z" fill="white"/>
<path d="M11.0295 19.8206L14.3923 22.9437L18.8661 21.9204L16.9371 26.076L19.2764 30.017L14.7352 29.4767L11.7196 32.9239L10.8257 28.4277L6.62323 26.6288L10.6223 24.384L11.0295 19.8206Z" fill="#FFDF40"/>
<path d="M7.79999 130.582L11.1628 133.705L15.6366 132.682L13.7076 136.837L16.0469 140.778L11.5057 140.238L8.4901 143.685L7.59621 139.189L3.39374 137.39L7.39284 135.145L7.79999 130.582Z" fill="#FFDF40"/>
<path d="M180.035 109.071L183.398 112.194L187.872 111.171L185.943 115.327L188.282 119.268L183.741 118.727L180.725 122.175L179.832 117.678L175.629 115.88L179.628 113.635L180.035 109.071Z" fill="#FFDF40"/>
<g filter="url(#filter0_d)">
<path d="M42.78 220.208L43.0965 216.661L45.7117 219.09L45.9056 219.27L46.1635 219.211L49.6427 218.415L48.1432 221.645L48.0322 221.884L48.1668 222.111L49.9888 225.181L46.454 224.76L46.1922 224.729L46.0186 224.927L43.6716 227.61L42.9758 224.11L42.9244 223.851L42.6821 223.748L39.4122 222.348L42.5267 220.6L42.7566 220.471L42.78 220.208Z" stroke="#E8D7E2"/>
</g>
<path d="M217.056 17.6315L220.419 20.7546L224.892 19.7314L222.963 23.8869L225.303 27.8279L220.762 27.2876L217.746 30.7348L216.852 26.2386L212.65 24.4397L216.649 22.1949L217.056 17.6315Z" fill="#FFDF40"/>
<g clip-path="url(#clip0)">
<path d="M114.44 33.2402L141.733 10.5182H130.843V0.572449L108.969 30.1915L110.196 32.639L114.44 33.2402Z" fill="#FFBE40"/>
<path d="M130.843 10.5182L111.635 32.8429L110.196 32.639L108.969 30.1915L130.843 0.572449V10.5182Z" fill="#FF9F40"/>
<path d="M101.155 45.0592L108.348 41.2535L115.541 45.0592L114.144 37.0564L119.96 31.3799L111.934 30.2212L108.351 22.9329L104.756 30.2237L96.7329 31.3761L102.552 37.0564L101.155 45.0592Z" fill="#FFDF40"/>
<path d="M124.169 31.6414C126.35 31.6414 128.124 29.8672 128.124 27.6863V26.3679H130.761V27.6863C130.761 29.8672 132.535 31.6414 134.716 31.6414H136.034V34.2781H134.716C132.535 34.2781 130.761 36.0522 130.761 38.2332V39.5515H128.124V38.2332C128.124 36.0522 126.35 34.2781 124.169 34.2781H122.851V31.6414H124.169Z" fill="#FFDF40"/>
<path d="M105.712 10.5476C107.893 10.5476 109.667 8.77345 109.667 6.59253V5.27417H112.304V6.59253C112.304 8.77345 114.078 10.5476 116.259 10.5476H117.577V13.1843H116.259C114.078 13.1843 112.304 14.9585 112.304 17.1394V18.4578H109.667V17.1394C109.667 14.9585 107.893 13.1843 105.712 13.1843H104.394V10.5476H105.712Z" fill="#FFBE40"/>
<path d="M96.7329 31.3762L104.756 30.2239L108.351 22.933L111.934 30.2213L113.669 30.4717L101.155 45.0593L102.552 37.0564L96.7329 31.3762Z" fill="#FFBE40"/>
</g>
<path d="M38.5272 60.1842C42.0973 60.1842 44.9914 57.273 44.9914 53.6818C44.9914 50.0906 42.0973 47.1793 38.5272 47.1793C34.9571 47.1793 32.063 50.0906 32.063 53.6818C32.063 57.273 34.9571 60.1842 38.5272 60.1842Z" fill="#A5678E"/>
<path d="M175.874 190.586C179.444 190.586 182.339 187.675 182.339 184.083C182.339 180.492 179.444 177.581 175.874 177.581C172.304 177.581 169.41 180.492 169.41 184.083C169.41 187.675 172.304 190.586 175.874 190.586Z" fill="#A5678E"/>
<path d="M176.515 27.5335C176.515 29.8657 174.637 31.7513 172.325 31.7513C170.014 31.7513 168.135 29.8657 168.135 27.5335C168.135 25.2013 170.014 23.3157 172.325 23.3157C174.637 23.3157 176.515 25.2013 176.515 27.5335Z" fill="#FFD180" stroke="#F2F2F1"/>
<path d="M210.917 69.6198C210.917 71.952 209.039 73.8376 206.727 73.8376C204.416 73.8376 202.537 71.952 202.537 69.6198C202.537 67.2876 204.416 65.402 206.727 65.402C209.039 65.402 210.917 67.2876 210.917 69.6198Z" stroke="#F3F4F3"/>
<path d="M196.004 74.3376C196.004 76.6698 194.125 78.5554 191.814 78.5554C189.502 78.5554 187.624 76.6698 187.624 74.3376C187.624 72.0053 189.502 70.1198 191.814 70.1198C194.125 70.1198 196.004 72.0053 196.004 74.3376Z" stroke="#E8D7E2"/>
<g filter="url(#filter1_d)">
<path d="M196.004 219.673C196.004 222.005 194.125 223.89 191.814 223.89C189.502 223.89 187.624 222.005 187.624 219.673C187.624 217.34 189.502 215.455 191.814 215.455C194.125 215.455 196.004 217.34 196.004 219.673Z" stroke="#E8D7E2"/>
</g>
<path d="M11.0413 192.733C11.0413 195.066 9.16254 196.951 6.8512 196.951C4.53987 196.951 2.66113 195.066 2.66113 192.733C2.66113 190.401 4.53987 188.516 6.8512 188.516C9.16254 188.516 11.0413 190.401 11.0413 192.733Z" fill="#FFD180" stroke="#F2F2F1"/>
<path d="M141.233 151.604C141.233 153.937 139.354 155.822 137.043 155.822C134.732 155.822 132.853 153.937 132.853 151.604C132.853 149.272 134.732 147.387 137.043 147.387C139.354 147.387 141.233 149.272 141.233 151.604Z" stroke="#E8D7E2"/>
<path d="M56.9235 144.366C59.5137 144.366 61.6135 142.254 61.6135 139.648C61.6135 137.043 59.5137 134.931 56.9235 134.931C54.3332 134.931 52.2334 137.043 52.2334 139.648C52.2334 142.254 54.3332 144.366 56.9235 144.366Z" fill="#FFD180"/>
<path d="M202.038 151.045C204.628 151.045 206.728 148.933 206.728 146.327C206.728 143.721 204.628 141.609 202.038 141.609C199.447 141.609 197.348 143.721 197.348 146.327C197.348 148.933 199.447 151.045 202.038 151.045Z" fill="#FFD180"/>
<path d="M60.8971 66.7804C63.4874 66.7804 65.5872 64.6682 65.5872 62.0626C65.5872 59.457 63.4874 57.3448 60.8971 57.3448C58.3068 57.3448 56.207 59.457 56.207 62.0626C56.207 64.6682 58.3068 66.7804 60.8971 66.7804Z" fill="#FFD180"/>
<path d="M9.58082 52.627C9.58082 54.9593 7.70209 56.8448 5.39075 56.8448C3.07942 56.8448 1.20068 54.9593 1.20068 52.627C1.20068 50.2948 3.07942 48.4092 5.39075 48.4092C7.70209 48.4092 9.58082 50.2948 9.58082 52.627Z" fill="#FFD180" stroke="#F2F2F1"/>
<defs>
<filter id="filter0_d" x="36.0503" y="214.955" width="17.8822" height="17.4433" filterUnits="userSpaceOnUse" color-interpolation-filters="sRGB">
<feFlood flood-opacity="0" result="BackgroundImageFix"/>
<feColorMatrix in="SourceAlpha" type="matrix" values="0 0 0 0 0 0 0 0 0 0 0 0 0 0 0 0 0 0 127 0"/>
<feOffset dy="1"/>
<feGaussianBlur stdDeviation="0.5"/>
<feColorMatrix type="matrix" values="0 0 0 0 0 0 0 0 0 0 0 0 0 0 0 0 0 0 0.1 0"/>
<feBlend mode="normal" in2="BackgroundImageFix" result="effect1_dropShadow"/>
<feBlend mode="normal" in="SourceGraphic" in2="effect1_dropShadow" result="shape"/>
</filter>
<filter id="filter1_d" x="186.124" y="214.955" width="11.3801" height="11.4356" filterUnits="userSpaceOnUse" color-interpolation-filters="sRGB">
<feFlood flood-opacity="0" result="BackgroundImageFix"/>
<feColorMatrix in="SourceAlpha" type="matrix" values="0 0 0 0 0 0 0 0 0 0 0 0 0 0 0 0 0 0 127 0"/>
<feOffset dy="1"/>
<feGaussianBlur stdDeviation="0.5"/>
<feColorMatrix type="matrix" values="0 0 0 0 0 0 0 0 0 0 0 0 0 0 0 0 0 0 0.1 0"/>
<feBlend mode="normal" in2="BackgroundImageFix" result="effect1_dropShadow"/>
<feBlend mode="normal" in="SourceGraphic" in2="effect1_dropShadow" result="shape"/>
</filter>
<clipPath id="clip0">
<rect width="45" height="45" fill="white" transform="matrix(-1 0 0 1 141.733 0.315674)"/>
</clipPath>
</defs>
</svg>
