<svg width="296" height="81" viewBox="0 0 296 81" fill="none" xmlns="http://www.w3.org/2000/svg">
<path d="M93.6396 40.9165L97.5654 32.8306H100.847L95.1279 43.6118V49.8931H92.1514V43.6118L86.4209 32.8306H89.7139L93.6396 40.9165ZM109.369 49.8931C109.244 49.6509 109.135 49.2563 109.041 48.7095C108.135 49.6548 107.025 50.1274 105.713 50.1274C104.439 50.1274 103.4 49.7642 102.596 49.0376C101.791 48.311 101.389 47.4126 101.389 46.3423C101.389 44.9907 101.889 43.9556 102.889 43.2368C103.896 42.5103 105.334 42.147 107.201 42.147H108.947V41.3149C108.947 40.6587 108.764 40.1353 108.396 39.7446C108.029 39.3462 107.471 39.147 106.721 39.147C106.072 39.147 105.541 39.311 105.127 39.6392C104.713 39.9595 104.506 40.3696 104.506 40.8696H101.658C101.658 40.1743 101.889 39.5259 102.349 38.9243C102.81 38.3149 103.435 37.8384 104.224 37.4946C105.021 37.1509 105.908 36.979 106.885 36.979C108.369 36.979 109.553 37.354 110.435 38.104C111.318 38.8462 111.771 39.8931 111.795 41.2446V46.9634C111.795 48.104 111.955 49.0142 112.275 49.6938V49.8931H109.369ZM106.24 47.8423C106.803 47.8423 107.33 47.7056 107.822 47.4321C108.322 47.1587 108.697 46.7915 108.947 46.3306V43.9399H107.412C106.357 43.9399 105.564 44.1235 105.033 44.4907C104.502 44.8579 104.236 45.3774 104.236 46.0493C104.236 46.5962 104.416 47.0337 104.775 47.3618C105.142 47.6821 105.631 47.8423 106.24 47.8423ZM122.005 46.4478C122.005 45.9399 121.794 45.5532 121.372 45.2876C120.958 45.022 120.266 44.7876 119.298 44.5845C118.329 44.3813 117.52 44.1235 116.872 43.811C115.45 43.1235 114.739 42.1274 114.739 40.8228C114.739 39.729 115.2 38.8149 116.122 38.0806C117.044 37.3462 118.216 36.979 119.637 36.979C121.153 36.979 122.376 37.354 123.305 38.104C124.243 38.854 124.712 39.8267 124.712 41.022H121.864C121.864 40.4751 121.661 40.022 121.255 39.6626C120.848 39.2954 120.309 39.1118 119.637 39.1118C119.012 39.1118 118.501 39.2563 118.102 39.5454C117.712 39.8345 117.516 40.2212 117.516 40.7056C117.516 41.1431 117.7 41.4829 118.067 41.7251C118.434 41.9673 119.177 42.2134 120.294 42.4634C121.411 42.7056 122.286 42.9985 122.919 43.3423C123.559 43.6782 124.032 44.0845 124.337 44.561C124.649 45.0376 124.805 45.6157 124.805 46.2954C124.805 47.436 124.333 48.3618 123.387 49.0728C122.442 49.7759 121.204 50.1274 119.673 50.1274C118.634 50.1274 117.708 49.9399 116.895 49.5649C116.083 49.1899 115.45 48.6743 114.997 48.0181C114.544 47.3618 114.317 46.6548 114.317 45.897H117.083C117.122 46.5688 117.376 47.0884 117.844 47.4556C118.313 47.8149 118.934 47.9946 119.708 47.9946C120.458 47.9946 121.028 47.854 121.419 47.5728C121.809 47.2837 122.005 46.9087 122.005 46.4478ZM130.433 44.8657H127.984L127.714 32.8306H130.714L130.433 44.8657ZM127.632 48.5454C127.632 48.1001 127.777 47.7329 128.066 47.4438C128.355 47.147 128.75 46.9985 129.25 46.9985C129.75 46.9985 130.144 47.147 130.433 47.4438C130.722 47.7329 130.867 48.1001 130.867 48.5454C130.867 48.9751 130.726 49.3345 130.445 49.6235C130.164 49.9126 129.765 50.0571 129.25 50.0571C128.734 50.0571 128.336 49.9126 128.054 49.6235C127.773 49.3345 127.632 48.9751 127.632 48.5454ZM151.978 35.2212H146.658V49.8931H143.716V35.2212H138.443V32.8306H151.978V35.2212ZM156.879 38.5962C157.809 37.5181 158.985 36.979 160.407 36.979C163.11 36.979 164.481 38.522 164.52 41.6079V49.8931H161.672V41.7134C161.672 40.8384 161.481 40.2212 161.098 39.8618C160.723 39.4946 160.168 39.311 159.434 39.311C158.293 39.311 157.442 39.8188 156.879 40.8345V49.8931H154.032V31.8931H156.879V38.5962ZM175.105 49.8931C174.98 49.6509 174.87 49.2563 174.777 48.7095C173.87 49.6548 172.761 50.1274 171.448 50.1274C170.175 50.1274 169.136 49.7642 168.331 49.0376C167.527 48.311 167.124 47.4126 167.124 46.3423C167.124 44.9907 167.624 43.9556 168.624 43.2368C169.632 42.5103 171.069 42.147 172.937 42.147H174.683V41.3149C174.683 40.6587 174.499 40.1353 174.132 39.7446C173.765 39.3462 173.206 39.147 172.456 39.147C171.808 39.147 171.277 39.311 170.862 39.6392C170.448 39.9595 170.241 40.3696 170.241 40.8696H167.394C167.394 40.1743 167.624 39.5259 168.085 38.9243C168.546 38.3149 169.171 37.8384 169.96 37.4946C170.757 37.1509 171.644 36.979 172.62 36.979C174.105 36.979 175.288 37.354 176.171 38.104C177.054 38.8462 177.507 39.8931 177.53 41.2446V46.9634C177.53 48.104 177.691 49.0142 178.011 49.6938V49.8931H175.105ZM171.976 47.8423C172.538 47.8423 173.066 47.7056 173.558 47.4321C174.058 47.1587 174.433 46.7915 174.683 46.3306V43.9399H173.148C172.093 43.9399 171.3 44.1235 170.769 44.4907C170.237 44.8579 169.972 45.3774 169.972 46.0493C169.972 46.5962 170.152 47.0337 170.511 47.3618C170.878 47.6821 171.366 47.8423 171.976 47.8423ZM184.201 34.1313V37.2134H186.439V39.3228H184.201V46.4009C184.201 46.8853 184.295 47.2368 184.482 47.4556C184.678 47.6665 185.022 47.772 185.514 47.772C185.842 47.772 186.174 47.7329 186.51 47.6548V49.8579C185.861 50.0376 185.236 50.1274 184.635 50.1274C182.447 50.1274 181.354 48.9204 181.354 46.5063V39.3228H179.268V37.2134H181.354V34.1313H184.201ZM189.618 37.8931L188.165 36.9907C188.868 35.9673 189.231 34.8853 189.255 33.7446V31.8931H191.751V33.5103C191.751 34.3149 191.544 35.1274 191.13 35.9478C190.724 36.7603 190.22 37.4087 189.618 37.8931ZM198.738 46.4478C198.738 45.9399 198.527 45.5532 198.105 45.2876C197.691 45.022 197 44.7876 196.031 44.5845C195.062 44.3813 194.254 44.1235 193.605 43.811C192.183 43.1235 191.472 42.1274 191.472 40.8228C191.472 39.729 191.933 38.8149 192.855 38.0806C193.777 37.3462 194.949 36.979 196.371 36.979C197.887 36.979 199.109 37.354 200.039 38.104C200.976 38.854 201.445 39.8267 201.445 41.022H198.597C198.597 40.4751 198.394 40.022 197.988 39.6626C197.582 39.2954 197.043 39.1118 196.371 39.1118C195.746 39.1118 195.234 39.2563 194.836 39.5454C194.445 39.8345 194.25 40.2212 194.25 40.7056C194.25 41.1431 194.433 41.4829 194.801 41.7251C195.168 41.9673 195.91 42.2134 197.027 42.4634C198.144 42.7056 199.019 42.9985 199.652 43.3423C200.293 43.6782 200.765 44.0845 201.07 44.561C201.383 45.0376 201.539 45.6157 201.539 46.2954C201.539 47.436 201.066 48.3618 200.121 49.0728C199.176 49.7759 197.937 50.1274 196.406 50.1274C195.367 50.1274 194.441 49.9399 193.629 49.5649C192.816 49.1899 192.183 48.6743 191.73 48.0181C191.277 47.3618 191.051 46.6548 191.051 45.897H193.816C193.855 46.5688 194.109 47.0884 194.578 47.4556C195.047 47.8149 195.668 47.9946 196.441 47.9946C197.191 47.9946 197.762 47.854 198.152 47.5728C198.543 47.2837 198.738 46.9087 198.738 46.4478ZM215.455 47.854C216.166 47.854 216.755 47.647 217.224 47.2329C217.693 46.8188 217.943 46.3071 217.974 45.6978H220.658C220.627 46.4868 220.38 47.2251 219.919 47.9126C219.459 48.5923 218.834 49.1313 218.044 49.5298C217.255 49.9282 216.404 50.1274 215.49 50.1274C213.716 50.1274 212.31 49.5532 211.271 48.4048C210.232 47.2563 209.712 45.6704 209.712 43.647V43.354C209.712 41.4243 210.228 39.8813 211.259 38.7251C212.291 37.561 213.697 36.979 215.478 36.979C216.986 36.979 218.212 37.4204 219.158 38.3032C220.111 39.1782 220.611 40.3306 220.658 41.7603H217.974C217.943 41.0337 217.693 40.436 217.224 39.9673C216.763 39.4985 216.173 39.2642 215.455 39.2642C214.533 39.2642 213.822 39.6001 213.322 40.272C212.822 40.936 212.568 41.9478 212.56 43.3071V43.7642C212.56 45.1392 212.806 46.1665 213.298 46.8462C213.798 47.5181 214.517 47.854 215.455 47.854ZM222.395 43.436C222.395 42.1938 222.641 41.0767 223.133 40.0845C223.625 39.0845 224.317 38.3188 225.207 37.7876C226.098 37.2485 227.122 36.979 228.278 36.979C229.989 36.979 231.375 37.5298 232.438 38.6313C233.508 39.7329 234.086 41.1938 234.172 43.0142L234.184 43.6821C234.184 44.9321 233.942 46.0493 233.457 47.0337C232.981 48.0181 232.293 48.7798 231.395 49.3188C230.504 49.8579 229.473 50.1274 228.301 50.1274C226.512 50.1274 225.079 49.5337 224 48.3462C222.93 47.1509 222.395 45.561 222.395 43.5767V43.436ZM225.243 43.6821C225.243 44.9868 225.512 46.0103 226.051 46.7524C226.59 47.4868 227.34 47.854 228.301 47.854C229.262 47.854 230.008 47.479 230.539 46.729C231.079 45.979 231.348 44.8813 231.348 43.436C231.348 42.1548 231.071 41.1392 230.516 40.3892C229.969 39.6392 229.223 39.2642 228.278 39.2642C227.348 39.2642 226.61 39.6353 226.063 40.3774C225.516 41.1118 225.243 42.2134 225.243 43.6821ZM243.351 39.8149C242.976 39.7524 242.589 39.7212 242.191 39.7212C240.886 39.7212 240.007 40.2212 239.554 41.2212V49.8931H236.706V37.2134H239.425L239.495 38.6313C240.183 37.5298 241.136 36.979 242.355 36.979C242.761 36.979 243.097 37.0337 243.363 37.1431L243.351 39.8149ZM251.908 39.8149C251.533 39.7524 251.147 39.7212 250.748 39.7212C249.444 39.7212 248.565 40.2212 248.112 41.2212V49.8931H245.264V37.2134H247.983L248.053 38.6313C248.74 37.5298 249.694 36.979 250.912 36.979C251.319 36.979 251.654 37.0337 251.92 37.1431L251.908 39.8149ZM259.177 50.1274C257.372 50.1274 255.907 49.561 254.782 48.4282C253.665 47.2876 253.107 45.772 253.107 43.8813V43.5298C253.107 42.2642 253.349 41.1353 253.833 40.1431C254.325 39.1431 255.013 38.3657 255.896 37.811C256.778 37.2563 257.763 36.979 258.849 36.979C260.575 36.979 261.907 37.5298 262.845 38.6313C263.79 39.7329 264.263 41.2915 264.263 43.3071V44.4556H255.978C256.064 45.5024 256.411 46.3306 257.021 46.9399C257.638 47.5493 258.411 47.854 259.341 47.854C260.646 47.854 261.708 47.3267 262.528 46.272L264.064 47.7368C263.556 48.4946 262.876 49.0845 262.024 49.5063C261.181 49.9204 260.232 50.1274 259.177 50.1274ZM258.837 39.2642C258.056 39.2642 257.423 39.5376 256.939 40.0845C256.462 40.6313 256.157 41.3931 256.024 42.3696H261.45V42.1587C261.388 41.2056 261.134 40.4868 260.689 40.0024C260.243 39.5103 259.626 39.2642 258.837 39.2642ZM271.812 47.854C272.523 47.854 273.113 47.647 273.582 47.2329C274.051 46.8188 274.301 46.3071 274.332 45.6978H277.016C276.984 46.4868 276.738 47.2251 276.277 47.9126C275.816 48.5923 275.191 49.1313 274.402 49.5298C273.613 49.9282 272.762 50.1274 271.848 50.1274C270.074 50.1274 268.668 49.5532 267.629 48.4048C266.59 47.2563 266.07 45.6704 266.07 43.647V43.354C266.07 41.4243 266.586 39.8813 267.617 38.7251C268.648 37.561 270.055 36.979 271.836 36.979C273.344 36.979 274.57 37.4204 275.516 38.3032C276.469 39.1782 276.969 40.3306 277.016 41.7603H274.332C274.301 41.0337 274.051 40.436 273.582 39.9673C273.121 39.4985 272.531 39.2642 271.812 39.2642C270.891 39.2642 270.18 39.6001 269.68 40.272C269.18 40.936 268.926 41.9478 268.918 43.3071V43.7642C268.918 45.1392 269.164 46.1665 269.656 46.8462C270.156 47.5181 270.875 47.854 271.812 47.854ZM282.854 34.1313V37.2134H285.093V39.3228H282.854V46.4009C282.854 46.8853 282.948 47.2368 283.136 47.4556C283.331 47.6665 283.675 47.772 284.167 47.772C284.495 47.772 284.827 47.7329 285.163 47.6548V49.8579C284.514 50.0376 283.889 50.1274 283.288 50.1274C281.1 50.1274 280.007 48.9204 280.007 46.5063V39.3228H277.921V37.2134H280.007V34.1313H282.854ZM289.174 46.8931C289.705 46.8931 290.115 47.0454 290.404 47.3501C290.693 47.647 290.838 48.022 290.838 48.4751C290.838 48.9204 290.693 49.2915 290.404 49.5884C290.115 49.8774 289.705 50.022 289.174 50.022C288.666 50.022 288.263 49.8774 287.967 49.5884C287.67 49.2993 287.521 48.9282 287.521 48.4751C287.521 48.022 287.666 47.647 287.955 47.3501C288.244 47.0454 288.65 46.8931 289.174 46.8931Z" fill="#215273"/>
<path d="M88.2951 12.5563C88.2951 16.5565 85.0721 19.7943 81.1026 19.7943C77.1331 19.7943 73.9102 16.5565 73.9102 12.5563C73.9102 8.55612 77.1331 5.31836 81.1026 5.31836C85.0721 5.31836 88.2951 8.55612 88.2951 12.5563Z" fill="#359D9E" stroke="#E5F8E9"/>
<path d="M286.172 29.7299C288.762 29.7299 290.862 27.6176 290.862 25.0121C290.862 22.4065 288.762 20.2943 286.172 20.2943C283.581 20.2943 281.481 22.4065 281.481 25.0121C281.481 27.6176 283.581 29.7299 286.172 29.7299Z" fill="#AEE8BC"/>
<path d="M9.93274 70.579C12.523 70.579 14.6228 68.4668 14.6228 65.8612C14.6228 63.2557 12.523 61.1434 9.93274 61.1434C7.34249 61.1434 5.24268 63.2557 5.24268 65.8612C5.24268 68.4668 7.34249 70.579 9.93274 70.579Z" fill="#AEE8BC"/>
<path d="M251.401 71.4337C253.992 71.4337 256.092 69.3214 256.092 66.7159C256.092 64.1103 253.992 61.998 251.401 61.998C248.811 61.998 246.711 64.1103 246.711 66.7159C246.711 69.3214 248.811 71.4337 251.401 71.4337Z" fill="#AEE8BC"/>
<path d="M145.091 61.9981C145.091 64.3303 143.212 66.2159 140.901 66.2159C138.59 66.2159 136.711 64.3303 136.711 61.9981C136.711 59.6659 138.59 57.7803 140.901 57.7803C143.212 57.7803 145.091 59.6659 145.091 61.9981Z" fill="#AEE8BC" stroke="#D3F2DB"/>
<path d="M102.245 26.8905C104.835 26.8905 106.935 24.7783 106.935 22.1727C106.935 19.5671 104.835 17.4549 102.245 17.4549C99.6545 17.4549 97.5547 19.5671 97.5547 22.1727C97.5547 24.7783 99.6545 26.8905 102.245 26.8905Z" fill="#AEE8BC"/>
<path d="M9.93274 47.8865C12.523 47.8865 14.6228 45.7743 14.6228 43.1687C14.6228 40.5632 12.523 38.4509 9.93274 38.4509C7.34249 38.4509 5.24268 40.5632 5.24268 43.1687C5.24268 45.7743 7.34249 47.8865 9.93274 47.8865Z" fill="#AEE8BC"/>
<path d="M60.6169 60.9145C71.6745 49.857 71.6745 31.9292 60.6169 20.8717C49.5594 9.81416 31.6316 9.81415 20.5741 20.8717C9.51661 31.9292 9.51663 49.857 20.5741 60.9145C31.6317 71.972 49.5594 71.972 60.6169 60.9145Z" fill="#FFC727"/>
<path opacity="0.1" d="M31.0287 67.5413C26.8426 66.0429 23.0681 63.58 20.0108 60.3518C16.9535 57.1237 14.6992 53.221 13.4304 48.9597C12.1617 44.6984 11.9141 40.1983 12.7077 35.8235C13.5014 31.4488 15.3139 27.3223 17.9986 23.7783C20.6834 20.2342 24.1649 17.3721 28.1613 15.4235C32.1577 13.475 36.5568 12.4948 41.0024 12.5623C45.4481 12.6299 49.8154 13.7432 53.7508 15.8122C57.6862 17.8813 61.0791 20.8478 63.655 24.4718C60.0387 19.7925 54.8571 16.5732 49.0599 15.4042C43.2627 14.2352 37.2384 15.1948 32.0913 18.107C26.9441 21.0192 23.019 25.6889 21.0355 31.2602C19.0519 36.8315 19.1428 42.9311 21.2914 48.4408C23.44 53.9506 27.5025 58.5013 32.7341 61.2589C37.9657 64.0165 44.0159 64.7962 49.7756 63.455C55.5354 62.1139 60.6189 58.7417 64.0942 53.9567C67.5695 49.1717 69.2038 43.2945 68.6975 37.4023C69.2925 42.2033 68.6481 47.0767 66.8258 51.5581C65.0035 56.0395 62.0639 59.9795 58.2871 63.0027C54.5104 66.026 50.0224 68.0316 45.2508 68.8287C40.4791 69.6257 35.5829 69.1875 31.0287 67.5558V67.5413Z" fill="black"/>
<path d="M26.0059 29.7029C26.1192 29.1386 26.3441 28.6027 26.6673 28.1265C26.9906 27.6504 27.4057 27.2436 27.8883 26.93C28.3933 26.5915 28.9666 26.3685 29.5676 26.2767C30.1879 26.1892 30.8203 26.2536 31.4103 26.4643C32.0004 26.675 32.5304 27.0258 32.955 27.4865C33.3643 27.9371 33.6655 28.4749 33.8358 29.0593C34.0101 29.6083 34.0725 30.1867 34.0193 30.7602C33.9661 31.3338 33.7984 31.8908 33.5261 32.3984C33.6587 31.3581 33.5013 30.3013 33.0712 29.3448C32.8859 28.9071 32.6119 28.5125 32.2666 28.186C31.9212 27.8594 31.5119 27.608 31.0645 27.4475C30.6171 27.287 30.1413 27.2209 29.6671 27.2535C29.1929 27.286 28.7306 27.4164 28.3093 27.6365C27.3644 28.0979 26.5667 28.8134 26.0059 29.7029V29.7029Z" fill="#263238"/>
<path d="M51.4609 38.8347C51.5745 38.2705 51.7995 37.7347 52.1227 37.2586C52.446 36.7824 52.861 36.3756 53.3434 36.0618C53.8486 35.7204 54.4242 35.4971 55.0275 35.4085C55.6451 35.3228 56.2743 35.3875 56.8615 35.5972C57.4458 35.8105 57.9714 36.1587 58.3956 36.6135C58.8047 37.0667 59.1073 37.6058 59.2812 38.1911C59.452 38.7408 59.5122 39.319 59.4582 39.8921C59.4042 40.4653 59.2371 41.022 58.9666 41.5302C59.0988 40.4903 58.9431 39.4341 58.5166 38.4766C58.3308 38.0387 58.0563 37.6441 57.7105 37.3175C57.3647 36.9909 56.955 36.7395 56.5072 36.579C56.0594 36.4185 55.5833 36.3525 55.1087 36.3851C54.6342 36.4177 54.1715 36.5482 53.7499 36.7683C52.8113 37.2334 52.0192 37.9484 51.4609 38.8347V38.8347Z" fill="#263238"/>
<path d="M37.2379 32.4517C37.1124 33.8802 37.4049 35.3143 38.0799 36.5796C38.8067 37.7414 39.9209 38.6087 41.2254 39.0282C42.4968 39.5351 43.9094 39.5609 45.1985 39.1008C46.5241 38.5469 47.6795 37.652 48.5473 36.507C47.9785 37.9491 46.9054 39.1357 45.5276 39.8461C44.8059 40.2042 44.0149 40.4008 43.2095 40.4219C42.4126 40.4203 41.6218 40.2812 40.8722 40.0106C40.1248 39.7363 39.4269 39.3424 38.8058 38.8443C38.1899 38.3268 37.6945 37.681 37.354 36.9522C36.7347 35.5235 36.6931 33.9104 37.2379 32.4517V32.4517Z" fill="#263238"/>
</svg>
